<svg xmlns="http://www.w3.org/2000/svg" width="512" height="512"><g fill="#0078b3"><path d="M94.863 181.314a7.5 7.5 0 0 0 7.5-7.5v-.971a7.5 7.5 0 0 0-7.5-7.5 7.5 7.5 0 0 0-7.5 7.5v.971a7.5 7.5 0 0 0 7.5 7.5zm24.887 6.668a7.498 7.498 0 0 0 10.244-2.746l.485-.841a7.5 7.5 0 0 0-2.746-10.245 7.498 7.498 0 0 0-10.244 2.746l-.485.841a7.499 7.499 0 0 0 2.746 10.245zm20.963 78.235l.841.485a7.498 7.498 0 0 0 10.244-2.746 7.5 7.5 0 0 0-2.746-10.245l-.841-.485a7.5 7.5 0 0 0-10.244 2.746 7.5 7.5 0 0 0 2.746 10.245zm-95.621-35.132a7.5 7.5 0 0 0-7.5-7.5h-.971a7.5 7.5 0 0 0-7.5 7.5 7.5 7.5 0 0 0 7.5 7.5h.971a7.5 7.5 0 0 0 7.5-7.5zm99.543 0a7.5 7.5 0 0 0 7.5 7.5h.971a7.5 7.5 0 0 0 7.5-7.5 7.5 7.5 0 0 0-7.5-7.5h-.971a7.5 7.5 0 0 0-7.5 7.5zm-.166-21.134a7.459 7.459 0 0 0 3.742-1.006l.841-.485a7.5 7.5 0 0 0 2.746-10.245 7.5 7.5 0 0 0-10.244-2.746l-.841.485a7.5 7.5 0 0 0 3.756 13.997z"/><path d="M494.792 10.827h-85.586C404.294 4.259 396.456 0 387.642 0H254.357c-9.488 0-17.207 7.719-17.207 17.207v117.456c0 4.142 3.357 7.5 7.5 7.5s7.5-3.358 7.5-7.5V17.207A2.21 2.21 0 0 1 254.357 15h133.286c6.569 0 11.914 5.345 11.914 11.914v29.121c0 4.142 3.357 7.5 7.5 7.5s7.5-3.358 7.5-7.5V26.914c0-.364-.006-.726-.021-1.087h80.258a2.21 2.21 0 0 1 2.207 2.207V268.47a2.21 2.21 0 0 1-2.207 2.207h-80.258c.014-.361.021-.723.021-1.087V85.156c0-4.142-3.357-7.5-7.5-7.5s-7.5 3.358-7.5 7.5v184.432c0 6.569-5.345 11.914-11.914 11.914H338.51a7.5 7.5 0 0 0-7.5 7.5 7.5 7.5 0 0 0 7.5 7.5h30.355v84.717c0 25.304-20.586 45.889-45.889 45.889-25.303 0-45.889-20.586-45.889-45.889v-16.896c13.603-1.334 24.268-12.838 24.268-26.785v-20.159c14.597-9.494 24.268-25.949 24.268-44.622a41.87 41.87 0 0 0-.57-6.884l-14.158-84.953c-3.38-20.276-20.752-34.992-41.307-34.992-15.919 0-30.702 9.246-37.661 23.556a7.5 7.5 0 1 0 13.488 6.561c4.467-9.182 13.955-15.116 24.173-15.116a26.79 26.79 0 0 1 26.51 22.458l14.16 84.954c.242 1.454.365 2.94.365 4.417 0 21.058-17.131 38.19-38.19 38.19h-5.689c-21.058 0-38.19-17.132-38.19-38.19 0-1.477.123-2.962.366-4.418l11.032-66.192a7.5 7.5 0 0 0-6.165-8.631 7.492 7.492 0 0 0-8.631 6.165l-11.032 66.191a41.882 41.882 0 0 0-.57 6.885c0 18.673 9.671 35.129 24.268 44.622v20.16c0 13.947 10.665 25.451 24.268 26.785v16.896c0 33.575 27.314 60.889 60.889 60.889s60.889-27.315 60.889-60.889v-84.717h3.775c8.814 0 16.652-4.259 21.564-10.827h27.609v102.339c0 60.094-48.89 108.984-108.984 108.984H211.348c-60.094 0-108.985-48.89-108.986-108.985v-23.691c13.603-1.334 24.268-12.838 24.268-26.785v-17.061c36.734-13.092 63.096-48.221 63.096-89.393 0-52.307-42.556-94.863-94.863-94.863S0 178.777 0 231.085c0 41.172 26.362 76.302 63.096 89.394v17.061c0 13.947 10.665 25.451 24.268 26.785v23.691C87.364 456.381 142.983 512 211.348 512h116.484c68.365 0 123.984-55.619 123.984-123.984V285.677h42.977c9.488 0 17.207-7.719 17.207-17.207V28.034c0-9.488-7.719-17.207-17.208-17.207zM264.736 349.453c-6.569 0-11.914-5.345-11.914-11.914v-13.438a53.09 53.09 0 0 0 13.923 1.848h5.689c4.816 0 9.484-.643 13.923-1.848v13.438c0 6.569-5.345 11.914-11.914 11.914h-9.707zM15 231.085c0-44.036 35.826-79.862 79.863-79.862s79.863 35.827 79.863 79.863-35.826 79.863-79.863 79.863S15 275.121 15 231.085zm75.009 118.368c-6.569 0-11.914-5.345-11.914-11.914v-13.074a94.973 94.973 0 0 0 16.768 1.484c5.721 0 11.323-.508 16.768-1.484v13.074c0 6.569-5.345 11.914-11.914 11.914h-9.708z"/><path d="M41.516 253.226l-.841.485a7.5 7.5 0 0 0 3.756 13.997 7.459 7.459 0 0 0 3.742-1.006l.841-.485a7.5 7.5 0 1 0-7.498-12.991zm254.988 16.364c0-4.142-3.357-7.5-7.5-7.5s-7.5 3.358-7.5 7.5c0 6.569-5.345 11.914-11.914 11.914a7.5 7.5 0 0 0-7.5 7.5 7.5 7.5 0 0 0 7.5 7.5c14.841 0 26.914-12.074 26.914-26.914zm-194.141 23.378v-81.62a7.5 7.5 0 0 0-7.5-7.5 7.5 7.5 0 0 0-7.5 7.5v81.62a7.5 7.5 0 0 0 7.5 7.5 7.5 7.5 0 0 0 7.5-7.5zm-53.349-97.014l-.841-.485a7.498 7.498 0 0 0-10.244 2.746 7.5 7.5 0 0 0 2.746 10.245l.841.485a7.498 7.498 0 0 0 10.244-2.746 7.5 7.5 0 0 0-2.746-10.245zm23.223-19.058a7.5 7.5 0 1 0-12.99 7.499l.485.841a7.494 7.494 0 0 0 10.244 2.746 7.5 7.5 0 0 0 2.746-10.245l-.485-.841z"/></g></svg>