<svg xmlns="http://www.w3.org/2000/svg" width="512" height="512"><path d="M475.379 155.313a7.5 7.5 0 0 0-7.5 7.5v126.785c0 6.893-5.607 12.5-12.5 12.5H56.621c-6.893 0-12.5-5.607-12.5-12.5V162.813a7.5 7.5 0 0 0-7.5-7.5 7.5 7.5 0 0 0-7.5 7.5v126.785c0 15.163 12.336 27.5 27.5 27.5h153.051v101.941h-17.738c-9.488 0-17.207 7.719-17.207 17.207v31.519H144.37c-9.488 0-17.207 7.719-17.207 17.207v9.528c0 9.649 7.851 17.5 17.5 17.5h222.676c9.649 0 17.5-7.851 17.5-17.5v-9.528c0-9.488-7.719-17.207-17.207-17.207h-30.357v-31.519c0-9.488-7.719-17.207-17.207-17.207H302.33v-53.216h8.297v2.245a7.5 7.5 0 0 0 7.5 7.5 7.5 7.5 0 0 0 7.5-7.5v-19.49a7.5 7.5 0 0 0-7.5-7.5 7.5 7.5 0 0 0-7.5 7.5v2.245h-8.297v-33.726h153.051c15.164 0 27.5-12.337 27.5-27.5V162.813a7.503 7.503 0 0 0-7.502-7.5zM224.672 317.098H248.5v80.206a7.5 7.5 0 0 0 15 0v-80.206h23.828v101.941h-62.656V317.098zm142.959 165.667a2.21 2.21 0 0 1 2.207 2.207v9.528c0 1.379-1.122 2.5-2.5 2.5H144.662a2.503 2.503 0 0 1-2.5-2.5v-9.528a2.21 2.21 0 0 1 2.207-2.207h223.262zm-47.565-48.726a2.21 2.21 0 0 1 2.207 2.207v31.519H189.725v-31.519a2.21 2.21 0 0 1 2.207-2.207h128.134z" fill="#0078b3"/><path d="M390.281 243.628c-12.165 0-22.061 9.895-22.061 22.06v.114c0 12.164 9.896 22.061 22.061 22.061s22.061-9.896 22.061-22.061v-.114c0-12.164-9.896-22.06-22.061-22.06zm7.06 22.174a7.068 7.068 0 0 1-7.061 7.061 7.068 7.068 0 0 1-7.061-7.061v-.114c0-3.893 3.167-7.06 7.061-7.06s7.061 3.167 7.061 7.06v.114zm48.917-110.489a7.5 7.5 0 0 0-7.5 7.5v49.08c0 1.379-1.122 2.5-2.5 2.5H75.742a2.503 2.503 0 0 1-2.5-2.5v-49.08c0-4.143-3.358-7.5-7.5-7.5s-7.5 3.357-7.5 7.5v49.08c0 9.649 7.851 17.5 17.5 17.5h360.516c9.649 0 17.5-7.851 17.5-17.5v-49.08a7.5 7.5 0 0 0-7.5-7.5zM99.66 243.628h-19.3c-12.196 0-22.118 9.922-22.118 22.117s9.922 22.117 22.118 22.117h19.3c12.196 0 22.118-9.922 22.118-22.117s-9.922-22.117-22.118-22.117zm0 29.234h-19.3c-3.925 0-7.118-3.192-7.118-7.117s3.193-7.117 7.118-7.117h19.3c3.925 0 7.118 3.192 7.118 7.117s-3.193 7.117-7.118 7.117z" fill="#0078b3"/><path d="M504.5 127.661h-21.621V27.5c0-15.164-12.336-27.5-27.5-27.5H56.621c-15.164 0-27.5 12.336-27.5 27.5v100.161H7.5c-4.142 0-7.5 3.357-7.5 7.5s3.358 7.5 7.5 7.5h106.466a7.5 7.5 0 0 0 6.938-4.652l8.244-20.087 13.814 47.591a7.499 7.499 0 0 0 13.471 2.026l16.342-24.878h28.865c.067 0 .135-.001.202-.003 11.41 18.081 26.172 34.155 35.92 43.913 4.942 4.947 11.419 7.671 18.237 7.671s13.295-2.724 18.238-7.671c9.748-9.759 24.51-25.832 35.92-43.913.067.002.134.003.202.003h28.865l16.342 24.878a7.508 7.508 0 0 0 7.384 3.3 7.502 7.502 0 0 0 6.087-5.326l13.814-47.591 8.244 20.087a7.5 7.5 0 0 0 6.938 4.652H504.5c4.142 0 7.5-3.357 7.5-7.5s-3.358-7.5-7.5-7.5zM263.626 175.97c-2.108 2.11-4.817 3.272-7.626 3.272s-5.518-1.162-7.625-3.272c-31.75-31.781-59.687-73.637-43.235-96.101 3.96-4.129 9.119-6.398 14.567-6.398 5.567 0 10.833 2.369 14.826 6.673l3.741 4.029a24.26 24.26 0 0 0 17.727 7.74 24.263 24.263 0 0 0 17.727-7.739l3.742-4.031c3.993-4.303 9.258-6.672 14.825-6.672 5.448 0 10.606 2.27 14.567 6.398 16.45 22.464-11.487 64.319-43.236 96.101zm175.132-48.309h-35.695l-14.488-35.303a7.5 7.5 0 1 0-14.141.756l-15.265 52.587-9.629-14.658a7.502 7.502 0 0 0-6.269-3.383h-24.77c9.435-19.781 12.691-40.491.097-57.144a7.44 7.44 0 0 0-.484-.578c-6.864-7.396-16.033-11.469-25.82-11.469-9.787 0-18.957 4.073-25.819 11.468l-3.742 4.031A9.1 9.1 0 0 1 256 76.911a9.097 9.097 0 0 1-6.733-2.944l-3.74-4.029c-6.864-7.396-16.033-11.469-25.82-11.469-9.786 0-18.957 4.073-25.82 11.469a7.452 7.452 0 0 0-.485.578c-12.593 16.652-9.337 37.362.098 57.144h-24.77a7.5 7.5 0 0 0-6.269 3.383l-9.629 14.658-15.265-52.587a7.497 7.497 0 0 0-6.802-5.398c-3.175-.158-6.128 1.691-7.339 4.642l-14.488 35.303H73.242V46.735c0-1.379 1.122-2.5 2.5-2.5h360.516c1.378 0 2.5 1.121 2.5 2.5v80.926zm29.121 0h-14.121V46.735c0-9.649-7.851-17.5-17.5-17.5H75.742c-9.649 0-17.5 7.851-17.5 17.5v80.926H44.121V27.5c0-6.893 5.607-12.5 12.5-12.5h398.758c6.893 0 12.5 5.607 12.5 12.5v100.161zM177.316 243.628h-19.3c-12.196 0-22.118 9.922-22.118 22.117s9.922 22.117 22.118 22.117h19.3c12.196 0 22.118-9.922 22.118-22.117s-9.922-22.117-22.118-22.117zm0 29.234h-19.3c-3.925 0-7.118-3.192-7.118-7.117s3.193-7.117 7.118-7.117h19.3c3.925 0 7.118 3.192 7.118 7.117s-3.193 7.117-7.118 7.117zm77.656-29.234h-19.3c-12.196 0-22.118 9.922-22.118 22.117s9.922 22.117 22.118 22.117h19.3c12.196 0 22.118-9.922 22.118-22.117s-9.922-22.117-22.118-22.117zm0 29.234h-19.3c-3.925 0-7.118-3.192-7.118-7.117s3.193-7.117 7.118-7.117h19.3c3.925 0 7.118 3.192 7.118 7.117s-3.193 7.117-7.118 7.117zm189.866-2.436h-10.229c-4.142 0-7.5 3.357-7.5 7.5s3.358 7.5 7.5 7.5h10.229c4.142 0 7.5-3.357 7.5-7.5s-3.358-7.5-7.5-7.5zm-.522-24.362h-10.229c-4.142 0-7.5 3.357-7.5 7.5s3.358 7.5 7.5 7.5h10.229c4.142 0 7.5-3.357 7.5-7.5s-3.358-7.5-7.5-7.5z" fill="#0078b3"/></svg>