<svg xmlns="http://www.w3.org/2000/svg" viewBox="0 0 470 470" width="512" height="512"><g fill="#0078b3"><path d="M146.897 250.626h9.594v33.668a7.5 7.5 0 0 0 7.5 7.5h30.2a7.5 7.5 0 0 0 7.5-7.5v-33.668h15v33.668a7.5 7.5 0 0 0 7.5 7.5h30.201a7.5 7.5 0 0 0 7.5-7.5v-33.668h9.594a7.5 7.5 0 0 0 0-15h-4.493v-104.88H287.5l65.471 37.313c12.151 6.991 22.417 24.742 22.417 38.761v50.724a7.5 7.5 0 0 0 15 0V206.82c0-19.367-13.15-42.104-29.963-51.778l-67.224-38.312a7.496 7.496 0 0 0-3.713-.984h-22.496V77.397a7.5 7.5 0 0 0-7.5-7.5h-12.634V7.5a7.5 7.5 0 0 0-7.5-7.5h-60.334a7.5 7.5 0 0 0-7.5 7.5v62.397H158.89a7.5 7.5 0 0 0-7.5 7.5v158.229h-4.493a7.5 7.5 0 0 0 0 15zm39.793 26.168h-15.2v-26.168h15.2v26.168zm60.201 0H231.69v-26.168h15.201v26.168zM186.523 15h45.334v54.897h-45.334V15zM166.39 84.897h85.602v150.729H166.39V84.897z"/><path d="M382.888 280.044c-20.898 0-37.901 17.002-37.901 37.901 0 18.332 13.083 33.662 30.401 37.153V455h-307.3l18.392-42.877c5.354-12.482 21.353-23.027 34.934-23.027h231.073a7.5 7.5 0 0 0 0-15h-22.5V211.552a7.5 7.5 0 0 0-3.801-6.524l-32.997-18.709a7.501 7.501 0 0 0-7.399 13.049l29.196 16.554v94.524H146.897a7.5 7.5 0 0 0-7.5 7.5v30a7.5 7.5 0 0 0 7.5 7.5h145.591a7.5 7.5 0 0 0 0-15H154.397v-15h160.591v48.651H121.415c-19.594 0-40.994 14.106-48.719 32.114l-22.877 53.333A7.499 7.499 0 0 0 56.712 470H382.89a7.5 7.5 0 0 0 7.5-7.5V355.098c17.318-3.491 30.401-18.821 30.401-37.153-.001-20.898-17.004-37.901-37.903-37.901zm0 60.803c-12.627 0-22.901-10.273-22.901-22.901 0-12.627 10.273-22.901 22.901-22.901s22.901 10.273 22.901 22.901c.001 12.627-10.273 22.901-22.901 22.901z"/></g></svg>