<svg xmlns="http://www.w3.org/2000/svg" width="512" height="512"><g fill="#0078b3"><path d="M90.129 436.816H73.5a2.503 2.503 0 0 1-2.5-2.5V162.813a7.5 7.5 0 0 0-15 0v271.504c0 9.649 7.851 17.5 17.5 17.5h16.629a7.5 7.5 0 0 0 0-15.001zM227.125 297.52a7.5 7.5 0 0 0-7.5 7.5v25.019h-42.75v-43.242h13.916a7.5 7.5 0 0 0 0-15h-21.416a7.5 7.5 0 0 0-7.5 7.5v58.242a7.5 7.5 0 0 0 7.5 7.5h57.75a7.5 7.5 0 0 0 7.5-7.5V305.02a7.5 7.5 0 0 0-7.5-7.5z"/><path d="M185.292 291.991a7.5 7.5 0 0 0-3.388 10.051l9.625 19.414a7.5 7.5 0 0 0 13.44 0l28.875-58.242a7.5 7.5 0 0 0-13.439-6.663L198.25 301.24l-2.905-5.861a7.502 7.502 0 0 0-10.053-3.388zm99.583-155.653H371.5a7.5 7.5 0 0 0 0-15h-86.625a7.5 7.5 0 0 0 0 15zm-62.563 4.414h-11.75v-11.914a7.5 7.5 0 0 0-15 0v11.914h-11.75a7.5 7.5 0 0 0 0 15h11.75v11.914a7.5 7.5 0 0 0 15 0v-11.914h11.75a7.5 7.5 0 0 0 0-15zm4.813 237.822h-57.75a7.5 7.5 0 0 0-7.5 7.5v58.242a7.5 7.5 0 0 0 7.5 7.5h57.75a7.5 7.5 0 0 0 7.5-7.5v-58.242a7.5 7.5 0 0 0-7.5-7.5zm-7.5 58.242h-42.75v-43.242h42.75v43.242zM63.5 142.81a7.5 7.5 0 0 0 7.5-7.5V17.5c0-1.378 1.122-2.5 2.5-2.5h307.25c1.378 0 2.5 1.122 2.5 2.5v22.033a7.5 7.5 0 0 0 15 0V17.5c0-9.649-7.851-17.5-17.5-17.5H73.5C63.851 0 56 7.851 56 17.5v117.81a7.5 7.5 0 0 0 7.5 7.5zm336.875 138.694h-134.75a7.5 7.5 0 0 0 0 15h134.75a7.5 7.5 0 0 0 0-15zm0-131.045h-115.5a7.5 7.5 0 0 0 0 15h115.5a7.5 7.5 0 0 0 0-15z"/><path d="M438.5 60.184H131.25c-9.649 0-17.5 7.851-17.5 17.5V494.5c0 9.649 7.851 17.5 17.5 17.5H438.5c9.649 0 17.5-7.851 17.5-17.5V77.684c0-9.65-7.851-17.5-17.5-17.5zM441 494.5c0 1.378-1.122 2.5-2.5 2.5H131.25a2.503 2.503 0 0 1-2.5-2.5V77.684c0-1.378 1.122-2.5 2.5-2.5H438.5c1.378 0 2.5 1.122 2.5 2.5V494.5z"/><path d="M366.687 417.402H265.625a7.5 7.5 0 0 0 0 15h101.062a7.5 7.5 0 0 0 0-15zM203.062 97.07c-28.018 0-50.812 22.96-50.812 51.182s22.794 51.182 50.812 51.182c28.019 0 50.813-22.96 50.813-51.182S231.081 97.07 203.062 97.07zm0 87.364c-19.747 0-35.812-16.231-35.812-36.182s16.065-36.182 35.812-36.182c19.748 0 35.813 16.231 35.813 36.182s-16.065 36.182-35.813 36.182zm197.313 203.847h-134.75a7.5 7.5 0 0 0 0 15h134.75a7.5 7.5 0 0 0 0-15zm-134.75-62.656h101.062a7.5 7.5 0 0 0 0-15H265.625a7.5 7.5 0 0 0 0 15z"/></g></svg>