<svg xmlns="http://www.w3.org/2000/svg" width="512" height="512"><g fill="#0078b3"><path d="M175.734 44.121h19.451c8.75 0 16.325-5.122 19.888-12.526a31.318 31.318 0 0 1 20.198 29.293 7.5 7.5 0 1 0 14.998 0c0-20.941-13.981-39.067-33.8-44.607C213.923 6.912 205.348 0 195.186 0h-19.451c-12.162 0-22.057 9.896-22.057 22.061s9.894 22.06 22.056 22.06zm0-29.121h19.451c3.892 0 7.059 3.167 7.059 7.061s-3.167 7.061-7.059 7.061h-19.451c-3.892 0-7.059-3.167-7.059-7.061S171.842 15 175.734 15zm276.029 77.572a7.606 7.606 0 0 0-.512-.565c-32.145-32.021-84.446-32.021-116.591 0l-24.886 24.792a7.5 7.5 0 0 0-.021 10.606 7.498 7.498 0 0 0 10.605.021l24.886-24.792c26.219-26.118 68.823-26.207 95.153-.269 21.714 26.829 20.594 63.96-3.328 110.373a7.5 7.5 0 0 0 6.659 10.938 7.496 7.496 0 0 0 6.671-4.065c27.003-52.391 27.462-95.133 1.364-127.039zm-80.451 134.783c-17.498 0-31.734 14.229-31.734 31.719s14.236 31.719 31.734 31.719 31.734-14.229 31.734-31.719-14.236-31.719-31.734-31.719zm0 48.438c-9.229 0-16.736-7.5-16.736-16.719s7.508-16.719 16.736-16.719c9.228 0 16.736 7.5 16.736 16.719s-7.507 16.719-16.736 16.719z"/><path d="M371.312 194.141c-35.825 0-64.971 29.129-64.971 64.933 0 28.364 18.299 52.523 43.711 61.345v34.917c0 9.533 6.081 17.672 14.57 20.747v15.007c0 58.399-47.546 105.91-105.987 105.91-58.442 0-105.988-47.511-105.988-105.91v-56.906c8.74-2.937 15.056-11.198 15.056-20.912v-21.621h27.628c23.69 28.536 48.193 52.554 64.149 67.321 10.583 9.794 24.369 15.188 38.819 15.188 14.451 0 28.236-5.394 38.82-15.188a7.5 7.5 0 0 0 .411-10.599 7.497 7.497 0 0 0-10.597-.411c-7.802 7.221-17.972 11.198-28.634 11.198-10.661 0-20.831-3.977-28.633-11.198-41.916-38.791-173.821-171.019-113.465-245.597 26.33-25.939 68.934-25.85 95.16.275l57.559 57.181a7.499 7.499 0 1 0 10.569-10.642l-57.551-57.173c-32.145-32.021-84.446-32.021-116.59 0-.18.18-.352.368-.512.565-15.632 19.11-21.747 42.456-18.176 69.389 1.736 13.097 5.816 27.13 12.149 41.946-46.249-3.522-82.81-42.522-82.81-89.955V60.888c0-13.737 9.12-25.8 21.883-29.862 3.443 7.707 11.175 13.095 20.146 13.095h19.452c12.162 0 22.057-9.896 22.057-22.061S129.639 0 117.477 0H98.026C88.053 0 79.61 6.656 76.891 15.758 56.19 20.558 41 39.332 41 60.888v169.874c0 23.182 16.71 42.244 38.999 45.742 2.909 8.787 11.2 15.147 20.953 15.147h22.613v21.621c0 9.35 5.852 17.354 14.085 20.56v57.258c0 66.67 54.274 120.91 120.986 120.91S379.62 457.76 379.62 391.09v-15.007c8.489-3.075 14.571-11.214 14.571-20.747v-35.497c24.568-9.271 42.092-33.006 42.092-60.765-.001-35.804-29.146-64.933-64.971-64.933zM98.026 15h19.452c3.892 0 7.059 3.167 7.059 7.061s-3.167 7.061-7.059 7.061H98.026c-3.892 0-7.059-3.167-7.059-7.061S94.133 15 98.026 15zM80.489 261.343c-14.122-3.101-24.492-15.564-24.492-30.58v-62.588c18.335 30.532 51.653 50.991 89.637 50.991.117 0 .235-.007.352-.008a296.147 296.147 0 0 0 9.457 17.029 356.114 356.114 0 0 0 7.102 11.343h-61.594c-9.251 0-17.187 5.724-20.462 13.813zm65.145 58.989c-3.899 0-7.072-3.167-7.072-7.061V284.15a7.5 7.5 0 0 0-7.499-7.5h-30.112c-3.899 0-7.072-3.167-7.072-7.061s3.172-7.061 7.072-7.061h71.85a479.92 479.92 0 0 0 10.512 14.121h-23.109a7.5 7.5 0 0 0-7.499 7.5v29.121c.001 3.895-3.171 7.062-7.071 7.062zm233.56 35.003c-.001 3.893-3.173 7.061-7.073 7.061-3.899 0-7.071-3.167-7.071-7.061V323.7c2.062.198 4.149.308 6.262.308 2.669 0 5.296-.181 7.882-.495v31.822zm-7.882-46.328c-27.555 0-49.973-22.4-49.973-49.934 0-27.533 22.418-49.933 49.973-49.933s49.973 22.4 49.973 49.933c0 27.534-22.418 49.934-49.973 49.934z"/></g></svg>