<svg xmlns="http://www.w3.org/2000/svg" viewBox="0 0 511.999 511.999" width="512" height="512"><g fill="#0078b3"><path d="M150.479 172.52c0 24.229 19.712 43.941 43.941 43.941s43.941-19.712 43.941-43.941c0-4.142-3.357-7.5-7.5-7.5s-7.5 3.358-7.5 7.5c0 15.958-12.983 28.941-28.941 28.941s-28.941-12.983-28.941-28.941 12.983-28.941 28.941-28.941c1.754 0 3.508.157 5.219.468 3.503 7.559 11.163 12.815 20.028 12.815 12.164 0 22.061-9.896 22.061-22.061s-9.896-22.061-22.061-22.061c-10.071 0-18.588 6.783-21.221 16.021a44.33 44.33 0 0 0-4.026-.183c-24.229.001-43.941 19.713-43.941 43.942zm69.189-44.78a7.068 7.068 0 0 1 7.061 7.061 7.068 7.068 0 0 1-7.061 7.061 7.068 7.068 0 0 1-7.061-7.061 7.068 7.068 0 0 1 7.061-7.061z"/><path d="M194.421 272.236c26.676 0 52.501-2.668 76.759-7.93a7.499 7.499 0 0 0 5.739-8.919 7.5 7.5 0 0 0-8.919-5.74 318.053 318.053 0 0 1-13.857 2.681c24.267-18.206 39.995-47.205 39.995-79.808 0-32.623-15.749-61.639-40.041-79.842 25.796 4.371 49.397 11.602 69.179 21.361 32.608 16.087 50.566 36.856 50.566 58.481 0 4.142 3.357 7.5 7.5 7.5s7.5-3.358 7.5-7.5C388.842 77.392 301.625 0 194.421 0S0 77.392 0 172.52c0 87.603 73.837 161.271 171.751 171.359a7.502 7.502 0 0 0 8.229-6.692 7.5 7.5 0 0 0-6.692-8.229c-71.304-7.347-128.751-50.876-149.722-108.233 9.248 8.701 21.104 16.693 35.363 23.728 36.317 17.916 84.435 27.783 135.492 27.783zm84.717-99.716c0 46.713-38.004 84.717-84.717 84.717s-84.717-38.004-84.717-84.717 38.004-84.717 84.717-84.717 84.717 38.004 84.717 84.717zM194.421 15c79.773 0 147.556 45.949 170.817 109.279-9.243-8.688-21.085-16.667-35.326-23.693-36.316-17.917-84.435-27.784-135.491-27.784-51.056 0-99.175 9.868-135.491 27.784-14.241 7.026-26.083 15.005-35.326 23.693C46.865 60.949 114.647 15 194.421 15zM15 172.52c0-21.625 17.958-42.394 50.566-58.481 19.781-9.759 43.383-16.99 69.179-21.361-24.292 18.204-40.041 47.219-40.041 79.842s15.749 61.639 40.041 79.842c-25.796-4.371-49.397-11.602-69.179-21.361C32.958 214.914 15 194.145 15 172.52z"/><path d="M489.454 293.88h-75.252l-.001-75.252c0-12.432-10.114-22.546-22.546-22.546h-75.229c-12.432 0-22.546 10.114-22.546 22.546v75.252h-75.253c-12.432 0-22.546 10.114-22.546 22.546v75.229c0 12.432 10.114 22.546 22.546 22.546h75.253v75.252c0 12.432 10.114 22.546 22.546 22.546h75.229c12.432 0 22.546-10.114 22.546-22.546v-75.252h75.252c12.432 0 22.546-10.114 22.546-22.546v-75.229c.001-12.431-10.113-22.546-22.545-22.546zm7.547 97.776H497c0 4.161-3.385 7.546-7.546 7.546h-82.752a7.5 7.5 0 0 0-7.5 7.5v82.752c0 4.161-3.385 7.546-7.546 7.546h-75.229c-4.161 0-7.546-3.385-7.546-7.546v-82.752a7.5 7.5 0 0 0-7.5-7.5h-82.753c-4.161 0-7.546-3.385-7.546-7.546v-75.229c0-4.161 3.385-7.546 7.546-7.546h82.753a7.5 7.5 0 0 0 7.5-7.5v-82.752c0-4.161 3.385-7.546 7.546-7.546h75.229c4.161 0 7.546 3.385 7.546 7.546l.001 82.752a7.5 7.5 0 0 0 7.5 7.5h82.752c4.161 0 7.546 3.385 7.546 7.546v75.229z"/><path d="M456.936 365.867h-63.339c-14.841 0-26.914 12.074-26.914 26.914v63.338c0 4.142 3.357 7.5 7.5 7.5s7.5-3.358 7.5-7.5v-63.338c0-6.569 5.345-11.914 11.914-11.914h63.339a7.5 7.5 0 0 0 0-15z"/></g></svg>