<svg xmlns="http://www.w3.org/2000/svg" xmlns:xlink="http://www.w3.org/1999/xlink"><symbol id="icon-examination"><g fill="#0078b3"><path d="M175.734 44.121h19.451c8.75 0 16.325-5.122 19.888-12.526a31.318 31.318 0 0 1 20.198 29.293 7.5 7.5 0 1 0 14.998 0c0-20.941-13.981-39.067-33.8-44.607C213.923 6.912 205.348 0 195.186 0h-19.451c-12.162 0-22.057 9.896-22.057 22.061s9.894 22.06 22.056 22.06zm0-29.121h19.451c3.892 0 7.059 3.167 7.059 7.061s-3.167 7.061-7.059 7.061h-19.451c-3.892 0-7.059-3.167-7.059-7.061S171.842 15 175.734 15zm276.029 77.572a7.606 7.606 0 0 0-.512-.565c-32.145-32.021-84.446-32.021-116.591 0l-24.886 24.792a7.5 7.5 0 0 0-.021 10.606 7.498 7.498 0 0 0 10.605.021l24.886-24.792c26.219-26.118 68.823-26.207 95.153-.269 21.714 26.829 20.594 63.96-3.328 110.373a7.5 7.5 0 0 0 6.659 10.938 7.496 7.496 0 0 0 6.671-4.065c27.003-52.391 27.462-95.133 1.364-127.039zm-80.451 134.783c-17.498 0-31.734 14.229-31.734 31.719s14.236 31.719 31.734 31.719 31.734-14.229 31.734-31.719-14.236-31.719-31.734-31.719zm0 48.438c-9.229 0-16.736-7.5-16.736-16.719s7.508-16.719 16.736-16.719c9.228 0 16.736 7.5 16.736 16.719s-7.507 16.719-16.736 16.719z"/><path d="M371.312 194.141c-35.825 0-64.971 29.129-64.971 64.933 0 28.364 18.299 52.523 43.711 61.345v34.917c0 9.533 6.081 17.672 14.57 20.747v15.007c0 58.399-47.546 105.91-105.987 105.91-58.442 0-105.988-47.511-105.988-105.91v-56.906c8.74-2.937 15.056-11.198 15.056-20.912v-21.621h27.628c23.69 28.536 48.193 52.554 64.149 67.321 10.583 9.794 24.369 15.188 38.819 15.188 14.451 0 28.236-5.394 38.82-15.188a7.5 7.5 0 0 0 .411-10.599 7.497 7.497 0 0 0-10.597-.411c-7.802 7.221-17.972 11.198-28.634 11.198-10.661 0-20.831-3.977-28.633-11.198-41.916-38.791-173.821-171.019-113.465-245.597 26.33-25.939 68.934-25.85 95.16.275l57.559 57.181a7.499 7.499 0 1 0 10.569-10.642l-57.551-57.173c-32.145-32.021-84.446-32.021-116.59 0-.18.18-.352.368-.512.565-15.632 19.11-21.747 42.456-18.176 69.389 1.736 13.097 5.816 27.13 12.149 41.946-46.249-3.522-82.81-42.522-82.81-89.955V60.888c0-13.737 9.12-25.8 21.883-29.862 3.443 7.707 11.175 13.095 20.146 13.095h19.452c12.162 0 22.057-9.896 22.057-22.061S129.639 0 117.477 0H98.026C88.053 0 79.61 6.656 76.891 15.758 56.19 20.558 41 39.332 41 60.888v169.874c0 23.182 16.71 42.244 38.999 45.742 2.909 8.787 11.2 15.147 20.953 15.147h22.613v21.621c0 9.35 5.852 17.354 14.085 20.56v57.258c0 66.67 54.274 120.91 120.986 120.91S379.62 457.76 379.62 391.09v-15.007c8.489-3.075 14.571-11.214 14.571-20.747v-35.497c24.568-9.271 42.092-33.006 42.092-60.765-.001-35.804-29.146-64.933-64.971-64.933zM98.026 15h19.452c3.892 0 7.059 3.167 7.059 7.061s-3.167 7.061-7.059 7.061H98.026c-3.892 0-7.059-3.167-7.059-7.061S94.133 15 98.026 15zM80.489 261.343c-14.122-3.101-24.492-15.564-24.492-30.58v-62.588c18.335 30.532 51.653 50.991 89.637 50.991.117 0 .235-.007.352-.008a296.147 296.147 0 0 0 9.457 17.029 356.114 356.114 0 0 0 7.102 11.343h-61.594c-9.251 0-17.187 5.724-20.462 13.813zm65.145 58.989c-3.899 0-7.072-3.167-7.072-7.061V284.15a7.5 7.5 0 0 0-7.499-7.5h-30.112c-3.899 0-7.072-3.167-7.072-7.061s3.172-7.061 7.072-7.061h71.85a479.92 479.92 0 0 0 10.512 14.121h-23.109a7.5 7.5 0 0 0-7.499 7.5v29.121c.001 3.895-3.171 7.062-7.071 7.062zm233.56 35.003c-.001 3.893-3.173 7.061-7.073 7.061-3.899 0-7.071-3.167-7.071-7.061V323.7c2.062.198 4.149.308 6.262.308 2.669 0 5.296-.181 7.882-.495v31.822zm-7.882-46.328c-27.555 0-49.973-22.4-49.973-49.934 0-27.533 22.418-49.933 49.973-49.933s49.973 22.4 49.973 49.933c0 27.534-22.418 49.934-49.973 49.934z"/></g></symbol><symbol id="icon-medical-report"><g fill="#0078b3"><path d="M90.129 436.816H73.5a2.503 2.503 0 0 1-2.5-2.5V162.813a7.5 7.5 0 0 0-15 0v271.504c0 9.649 7.851 17.5 17.5 17.5h16.629a7.5 7.5 0 0 0 0-15.001zM227.125 297.52a7.5 7.5 0 0 0-7.5 7.5v25.019h-42.75v-43.242h13.916a7.5 7.5 0 0 0 0-15h-21.416a7.5 7.5 0 0 0-7.5 7.5v58.242a7.5 7.5 0 0 0 7.5 7.5h57.75a7.5 7.5 0 0 0 7.5-7.5V305.02a7.5 7.5 0 0 0-7.5-7.5z"/><path d="M185.292 291.991a7.5 7.5 0 0 0-3.388 10.051l9.625 19.414a7.5 7.5 0 0 0 13.44 0l28.875-58.242a7.5 7.5 0 0 0-13.439-6.663L198.25 301.24l-2.905-5.861a7.502 7.502 0 0 0-10.053-3.388zm99.583-155.653H371.5a7.5 7.5 0 0 0 0-15h-86.625a7.5 7.5 0 0 0 0 15zm-62.563 4.414h-11.75v-11.914a7.5 7.5 0 0 0-15 0v11.914h-11.75a7.5 7.5 0 0 0 0 15h11.75v11.914a7.5 7.5 0 0 0 15 0v-11.914h11.75a7.5 7.5 0 0 0 0-15zm4.813 237.822h-57.75a7.5 7.5 0 0 0-7.5 7.5v58.242a7.5 7.5 0 0 0 7.5 7.5h57.75a7.5 7.5 0 0 0 7.5-7.5v-58.242a7.5 7.5 0 0 0-7.5-7.5zm-7.5 58.242h-42.75v-43.242h42.75v43.242zM63.5 142.81a7.5 7.5 0 0 0 7.5-7.5V17.5c0-1.378 1.122-2.5 2.5-2.5h307.25c1.378 0 2.5 1.122 2.5 2.5v22.033a7.5 7.5 0 0 0 15 0V17.5c0-9.649-7.851-17.5-17.5-17.5H73.5C63.851 0 56 7.851 56 17.5v117.81a7.5 7.5 0 0 0 7.5 7.5zm336.875 138.694h-134.75a7.5 7.5 0 0 0 0 15h134.75a7.5 7.5 0 0 0 0-15zm0-131.045h-115.5a7.5 7.5 0 0 0 0 15h115.5a7.5 7.5 0 0 0 0-15z"/><path d="M438.5 60.184H131.25c-9.649 0-17.5 7.851-17.5 17.5V494.5c0 9.649 7.851 17.5 17.5 17.5H438.5c9.649 0 17.5-7.851 17.5-17.5V77.684c0-9.65-7.851-17.5-17.5-17.5zM441 494.5c0 1.378-1.122 2.5-2.5 2.5H131.25a2.503 2.503 0 0 1-2.5-2.5V77.684c0-1.378 1.122-2.5 2.5-2.5H438.5c1.378 0 2.5 1.122 2.5 2.5V494.5z"/><path d="M366.687 417.402H265.625a7.5 7.5 0 0 0 0 15h101.062a7.5 7.5 0 0 0 0-15zM203.062 97.07c-28.018 0-50.812 22.96-50.812 51.182s22.794 51.182 50.812 51.182c28.019 0 50.813-22.96 50.813-51.182S231.081 97.07 203.062 97.07zm0 87.364c-19.747 0-35.812-16.231-35.812-36.182s16.065-36.182 35.812-36.182c19.748 0 35.813 16.231 35.813 36.182s-16.065 36.182-35.813 36.182zm197.313 203.847h-134.75a7.5 7.5 0 0 0 0 15h134.75a7.5 7.5 0 0 0 0-15zm-134.75-62.656h101.062a7.5 7.5 0 0 0 0-15H265.625a7.5 7.5 0 0 0 0 15z"/></g></symbol><symbol id="icon-medical"><g fill="#0078b3"><path d="M69.579 338.925v-1.937c0-4.143-3.357-7.5-7.5-7.5a7.499 7.499 0 0 0-7.5 7.5v1.937c0 4.143 3.357 7.5 7.5 7.5s7.5-3.358 7.5-7.5zm-28.94 76.537a7.499 7.499 0 0 0-7.5 7.5v25.314c0 18.051 14.686 32.738 32.738 32.738h.205a32.679 32.679 0 0 0 21.778-8.295 7.5 7.5 0 0 0-9.983-11.195 17.708 17.708 0 0 1-11.796 4.49h-.205c-9.781 0-17.738-7.957-17.738-17.738v-25.314c0-4.143-3.356-7.5-7.499-7.5z"/><path d="M506.932 35.216L476.534 5.017c-6.715-6.671-17.64-6.671-24.353 0l-17.349 17.235a7.5 7.5 0 0 0-.034 10.606 7.498 7.498 0 0 0 10.606.034l17.349-17.235a2.28 2.28 0 0 1 3.208 0l30.398 30.199c.53.526.641 1.121.641 1.527s-.112 1-.641 1.526L364.005 180.397a2.284 2.284 0 0 1-3.209.001l-30.398-30.2c-.53-.526-.641-1.121-.641-1.527s.112-1 .641-1.526l97.842-97.203a7.5 7.5 0 1 0-10.572-10.64l-97.842 97.203a17.037 17.037 0 0 0-5.068 12.167c0 2.833.683 5.559 1.971 7.994l-68.167 67.723c-35.816-24.053-80.471-29.794-120.504-17.214V91.562c0-4.295-2.116-8.104-5.36-10.441v-19.77c5.506-2.953 9.259-8.764 9.259-15.436V17.5c0-9.649-7.851-17.5-17.5-17.5H17.5C7.851 0 0 7.851 0 17.5v28.415c0 6.672 3.753 12.483 9.259 15.436v19.77c-3.244 2.337-5.36 6.146-5.36 10.441v358.714c0 34.035 27.849 61.724 62.08 61.724 19.3 0 37.171-8.697 49.033-23.864a7.5 7.5 0 0 0-1.288-10.528 7.499 7.499 0 0 0-10.528 1.288C94.198 490.401 80.633 497 65.979 497c-25.96 0-47.08-20.96-47.08-46.724V93.391a7.503 7.503 0 0 0 5.36-7.19V63.415h83.44v15.286H40.638c-4.143 0-7.5 3.357-7.5 7.5s3.357 7.5 7.5 7.5h72.419v119.153a139.078 139.078 0 0 0-14.239 7.362v-50.68c0-18.051-14.686-32.738-32.738-32.738h-.205c-18.051 0-32.738 14.686-32.738 32.738v143.215c0 .204.007.407.024.607a139.508 139.508 0 0 0-2.445 26.078c0 37.086 14.534 71.95 40.925 98.169 54.449 54.094 143.041 54.094 197.49 0 26.391-26.219 40.926-61.083 40.926-98.169 0-28.826-8.781-56.308-25.084-79.432l67.513-67.072c6.717 4.706 16.088 4.073 22.092-1.892L506.932 59.55A17.037 17.037 0 0 0 512 47.383c0-4.6-1.8-8.921-5.068-12.167zM29.239 48.415H17.5a2.502 2.502 0 0 1-2.5-2.5V17.5c0-1.379 1.121-2.5 2.5-2.5h11.739v33.415zm29.239 0H44.239V15h14.239v33.415zm29.24 0H73.479V15h14.239v33.415zm15 0V15h11.739c1.379 0 2.5 1.121 2.5 2.5v28.415c0 1.379-1.121 2.5-2.5 2.5h-11.739zM65.877 151.799h.205c9.781 0 17.738 7.957 17.738 17.738v60.956a140.239 140.239 0 0 0-12.178 10.773c-9.368 9.306-17.242 19.705-23.503 30.902V169.537c0-9.781 7.957-17.738 17.738-17.738zm229.18 187.637c0 33.06-12.962 64.145-36.498 87.528-24.313 24.154-56.237 36.229-88.173 36.226a126.037 126.037 0 0 1-42.328-7.307V247.264c0-4.143-3.357-7.5-7.5-7.5a7.499 7.499 0 0 0-7.5 7.5V449.39a123.906 123.906 0 0 1-14.239-8.563V268.619c0-4.143-3.357-7.5-7.5-7.5s-7.5 3.357-7.5 7.5v159.91a124.367 124.367 0 0 1-1.605-1.566c-23.536-23.382-36.497-54.467-36.497-87.528 0-33.061 12.961-64.146 36.497-87.529 48.62-48.301 127.728-48.301 176.346 0 23.536 23.383 36.498 54.468 36.497 87.53zm-19.438-91.282a141.961 141.961 0 0 0-6.487-6.888 140.515 140.515 0 0 0-8.469-7.754l66.156-65.726 14.848 14.751-66.048 65.617z"/><path d="M70.853 292.693a7.499 7.499 0 0 0-7.5 7.5v1.937c0 4.143 3.357 7.5 7.5 7.5s7.5-3.357 7.5-7.5v-1.937a7.5 7.5 0 0 0-7.5-7.5zm0 75.526a7.499 7.499 0 0 0-7.5 7.5v1.937c0 4.143 3.357 7.5 7.5 7.5s7.5-3.357 7.5-7.5v-1.937a7.5 7.5 0 0 0-7.5-7.5zM220.242 264.74a7.5 7.5 0 0 0 .034 10.606c17.233 17.122 26.725 39.882 26.725 64.089 0 24.206-9.491 46.966-26.725 64.088a7.5 7.5 0 0 0-.034 10.606 7.474 7.474 0 0 0 5.32 2.214 7.48 7.48 0 0 0 5.286-2.18C250.937 394.205 262 367.666 262 339.434s-11.063-54.771-31.152-74.729a7.497 7.497 0 0 0-10.606.035z"/></g></symbol><symbol id="sprite"><symbol id="icon-examination"><g fill="#0078b3"><path d="M175.734 44.121h19.451c8.75 0 16.325-5.122 19.888-12.526a31.318 31.318 0 0 1 20.198 29.293 7.5 7.5 0 1 0 14.998 0c0-20.941-13.981-39.067-33.8-44.607C213.923 6.912 205.348 0 195.186 0h-19.451c-12.162 0-22.057 9.896-22.057 22.061s9.894 22.06 22.056 22.06zm0-29.121h19.451c3.892 0 7.059 3.167 7.059 7.061s-3.167 7.061-7.059 7.061h-19.451c-3.892 0-7.059-3.167-7.059-7.061S171.842 15 175.734 15zm276.029 77.572a7.606 7.606 0 0 0-.512-.565c-32.145-32.021-84.446-32.021-116.591 0l-24.886 24.792a7.5 7.5 0 0 0-.021 10.606 7.498 7.498 0 0 0 10.605.021l24.886-24.792c26.219-26.118 68.823-26.207 95.153-.269 21.714 26.829 20.594 63.96-3.328 110.373a7.5 7.5 0 0 0 6.659 10.938 7.496 7.496 0 0 0 6.671-4.065c27.003-52.391 27.462-95.133 1.364-127.039zm-80.451 134.783c-17.498 0-31.734 14.229-31.734 31.719s14.236 31.719 31.734 31.719 31.734-14.229 31.734-31.719-14.236-31.719-31.734-31.719zm0 48.438c-9.229 0-16.736-7.5-16.736-16.719s7.508-16.719 16.736-16.719c9.228 0 16.736 7.5 16.736 16.719s-7.507 16.719-16.736 16.719z"/><path d="M371.312 194.141c-35.825 0-64.971 29.129-64.971 64.933 0 28.364 18.299 52.523 43.711 61.345v34.917c0 9.533 6.081 17.672 14.57 20.747v15.007c0 58.399-47.546 105.91-105.987 105.91-58.442 0-105.988-47.511-105.988-105.91v-56.906c8.74-2.937 15.056-11.198 15.056-20.912v-21.621h27.628c23.69 28.536 48.193 52.554 64.149 67.321 10.583 9.794 24.369 15.188 38.819 15.188 14.451 0 28.236-5.394 38.82-15.188a7.5 7.5 0 0 0 .411-10.599 7.497 7.497 0 0 0-10.597-.411c-7.802 7.221-17.972 11.198-28.634 11.198-10.661 0-20.831-3.977-28.633-11.198-41.916-38.791-173.821-171.019-113.465-245.597 26.33-25.939 68.934-25.85 95.16.275l57.559 57.181a7.499 7.499 0 1 0 10.569-10.642l-57.551-57.173c-32.145-32.021-84.446-32.021-116.59 0-.18.18-.352.368-.512.565-15.632 19.11-21.747 42.456-18.176 69.389 1.736 13.097 5.816 27.13 12.149 41.946-46.249-3.522-82.81-42.522-82.81-89.955V60.888c0-13.737 9.12-25.8 21.883-29.862 3.443 7.707 11.175 13.095 20.146 13.095h19.452c12.162 0 22.057-9.896 22.057-22.061S129.639 0 117.477 0H98.026C88.053 0 79.61 6.656 76.891 15.758 56.19 20.558 41 39.332 41 60.888v169.874c0 23.182 16.71 42.244 38.999 45.742 2.909 8.787 11.2 15.147 20.953 15.147h22.613v21.621c0 9.35 5.852 17.354 14.085 20.56v57.258c0 66.67 54.274 120.91 120.986 120.91S379.62 457.76 379.62 391.09v-15.007c8.489-3.075 14.571-11.214 14.571-20.747v-35.497c24.568-9.271 42.092-33.006 42.092-60.765-.001-35.804-29.146-64.933-64.971-64.933zM98.026 15h19.452c3.892 0 7.059 3.167 7.059 7.061s-3.167 7.061-7.059 7.061H98.026c-3.892 0-7.059-3.167-7.059-7.061S94.133 15 98.026 15zM80.489 261.343c-14.122-3.101-24.492-15.564-24.492-30.58v-62.588c18.335 30.532 51.653 50.991 89.637 50.991.117 0 .235-.007.352-.008a296.147 296.147 0 0 0 9.457 17.029 356.114 356.114 0 0 0 7.102 11.343h-61.594c-9.251 0-17.187 5.724-20.462 13.813zm65.145 58.989c-3.899 0-7.072-3.167-7.072-7.061V284.15a7.5 7.5 0 0 0-7.499-7.5h-30.112c-3.899 0-7.072-3.167-7.072-7.061s3.172-7.061 7.072-7.061h71.85a479.92 479.92 0 0 0 10.512 14.121h-23.109a7.5 7.5 0 0 0-7.499 7.5v29.121c.001 3.895-3.171 7.062-7.071 7.062zm233.56 35.003c-.001 3.893-3.173 7.061-7.073 7.061-3.899 0-7.071-3.167-7.071-7.061V323.7c2.062.198 4.149.308 6.262.308 2.669 0 5.296-.181 7.882-.495v31.822zm-7.882-46.328c-27.555 0-49.973-22.4-49.973-49.934 0-27.533 22.418-49.933 49.973-49.933s49.973 22.4 49.973 49.933c0 27.534-22.418 49.934-49.973 49.934z"/></g></symbol><symbol id="icon-medical-report"><g fill="#0078b3"><path d="M90.129 436.816H73.5a2.503 2.503 0 0 1-2.5-2.5V162.813a7.5 7.5 0 0 0-15 0v271.504c0 9.649 7.851 17.5 17.5 17.5h16.629a7.5 7.5 0 0 0 0-15.001zM227.125 297.52a7.5 7.5 0 0 0-7.5 7.5v25.019h-42.75v-43.242h13.916a7.5 7.5 0 0 0 0-15h-21.416a7.5 7.5 0 0 0-7.5 7.5v58.242a7.5 7.5 0 0 0 7.5 7.5h57.75a7.5 7.5 0 0 0 7.5-7.5V305.02a7.5 7.5 0 0 0-7.5-7.5z"/><path d="M185.292 291.991a7.5 7.5 0 0 0-3.388 10.051l9.625 19.414a7.5 7.5 0 0 0 13.44 0l28.875-58.242a7.5 7.5 0 0 0-13.439-6.663L198.25 301.24l-2.905-5.861a7.502 7.502 0 0 0-10.053-3.388zm99.583-155.653H371.5a7.5 7.5 0 0 0 0-15h-86.625a7.5 7.5 0 0 0 0 15zm-62.563 4.414h-11.75v-11.914a7.5 7.5 0 0 0-15 0v11.914h-11.75a7.5 7.5 0 0 0 0 15h11.75v11.914a7.5 7.5 0 0 0 15 0v-11.914h11.75a7.5 7.5 0 0 0 0-15zm4.813 237.822h-57.75a7.5 7.5 0 0 0-7.5 7.5v58.242a7.5 7.5 0 0 0 7.5 7.5h57.75a7.5 7.5 0 0 0 7.5-7.5v-58.242a7.5 7.5 0 0 0-7.5-7.5zm-7.5 58.242h-42.75v-43.242h42.75v43.242zM63.5 142.81a7.5 7.5 0 0 0 7.5-7.5V17.5c0-1.378 1.122-2.5 2.5-2.5h307.25c1.378 0 2.5 1.122 2.5 2.5v22.033a7.5 7.5 0 0 0 15 0V17.5c0-9.649-7.851-17.5-17.5-17.5H73.5C63.851 0 56 7.851 56 17.5v117.81a7.5 7.5 0 0 0 7.5 7.5zm336.875 138.694h-134.75a7.5 7.5 0 0 0 0 15h134.75a7.5 7.5 0 0 0 0-15zm0-131.045h-115.5a7.5 7.5 0 0 0 0 15h115.5a7.5 7.5 0 0 0 0-15z"/><path d="M438.5 60.184H131.25c-9.649 0-17.5 7.851-17.5 17.5V494.5c0 9.649 7.851 17.5 17.5 17.5H438.5c9.649 0 17.5-7.851 17.5-17.5V77.684c0-9.65-7.851-17.5-17.5-17.5zM441 494.5c0 1.378-1.122 2.5-2.5 2.5H131.25a2.503 2.503 0 0 1-2.5-2.5V77.684c0-1.378 1.122-2.5 2.5-2.5H438.5c1.378 0 2.5 1.122 2.5 2.5V494.5z"/><path d="M366.687 417.402H265.625a7.5 7.5 0 0 0 0 15h101.062a7.5 7.5 0 0 0 0-15zM203.062 97.07c-28.018 0-50.812 22.96-50.812 51.182s22.794 51.182 50.812 51.182c28.019 0 50.813-22.96 50.813-51.182S231.081 97.07 203.062 97.07zm0 87.364c-19.747 0-35.812-16.231-35.812-36.182s16.065-36.182 35.812-36.182c19.748 0 35.813 16.231 35.813 36.182s-16.065 36.182-35.813 36.182zm197.313 203.847h-134.75a7.5 7.5 0 0 0 0 15h134.75a7.5 7.5 0 0 0 0-15zm-134.75-62.656h101.062a7.5 7.5 0 0 0 0-15H265.625a7.5 7.5 0 0 0 0 15z"/></g></symbol><symbol id="icon-medical"><g fill="#0078b3"><path d="M69.579 338.925v-1.937c0-4.143-3.357-7.5-7.5-7.5a7.499 7.499 0 0 0-7.5 7.5v1.937c0 4.143 3.357 7.5 7.5 7.5s7.5-3.358 7.5-7.5zm-28.94 76.537a7.499 7.499 0 0 0-7.5 7.5v25.314c0 18.051 14.686 32.738 32.738 32.738h.205a32.679 32.679 0 0 0 21.778-8.295 7.5 7.5 0 0 0-9.983-11.195 17.708 17.708 0 0 1-11.796 4.49h-.205c-9.781 0-17.738-7.957-17.738-17.738v-25.314c0-4.143-3.356-7.5-7.499-7.5z"/><path d="M506.932 35.216L476.534 5.017c-6.715-6.671-17.64-6.671-24.353 0l-17.349 17.235a7.5 7.5 0 0 0-.034 10.606 7.498 7.498 0 0 0 10.606.034l17.349-17.235a2.28 2.28 0 0 1 3.208 0l30.398 30.199c.53.526.641 1.121.641 1.527s-.112 1-.641 1.526L364.005 180.397a2.284 2.284 0 0 1-3.209.001l-30.398-30.2c-.53-.526-.641-1.121-.641-1.527s.112-1 .641-1.526l97.842-97.203a7.5 7.5 0 1 0-10.572-10.64l-97.842 97.203a17.037 17.037 0 0 0-5.068 12.167c0 2.833.683 5.559 1.971 7.994l-68.167 67.723c-35.816-24.053-80.471-29.794-120.504-17.214V91.562c0-4.295-2.116-8.104-5.36-10.441v-19.77c5.506-2.953 9.259-8.764 9.259-15.436V17.5c0-9.649-7.851-17.5-17.5-17.5H17.5C7.851 0 0 7.851 0 17.5v28.415c0 6.672 3.753 12.483 9.259 15.436v19.77c-3.244 2.337-5.36 6.146-5.36 10.441v358.714c0 34.035 27.849 61.724 62.08 61.724 19.3 0 37.171-8.697 49.033-23.864a7.5 7.5 0 0 0-1.288-10.528 7.499 7.499 0 0 0-10.528 1.288C94.198 490.401 80.633 497 65.979 497c-25.96 0-47.08-20.96-47.08-46.724V93.391a7.503 7.503 0 0 0 5.36-7.19V63.415h83.44v15.286H40.638c-4.143 0-7.5 3.357-7.5 7.5s3.357 7.5 7.5 7.5h72.419v119.153a139.078 139.078 0 0 0-14.239 7.362v-50.68c0-18.051-14.686-32.738-32.738-32.738h-.205c-18.051 0-32.738 14.686-32.738 32.738v143.215c0 .204.007.407.024.607a139.508 139.508 0 0 0-2.445 26.078c0 37.086 14.534 71.95 40.925 98.169 54.449 54.094 143.041 54.094 197.49 0 26.391-26.219 40.926-61.083 40.926-98.169 0-28.826-8.781-56.308-25.084-79.432l67.513-67.072c6.717 4.706 16.088 4.073 22.092-1.892L506.932 59.55A17.037 17.037 0 0 0 512 47.383c0-4.6-1.8-8.921-5.068-12.167zM29.239 48.415H17.5a2.502 2.502 0 0 1-2.5-2.5V17.5c0-1.379 1.121-2.5 2.5-2.5h11.739v33.415zm29.239 0H44.239V15h14.239v33.415zm29.24 0H73.479V15h14.239v33.415zm15 0V15h11.739c1.379 0 2.5 1.121 2.5 2.5v28.415c0 1.379-1.121 2.5-2.5 2.5h-11.739zM65.877 151.799h.205c9.781 0 17.738 7.957 17.738 17.738v60.956a140.239 140.239 0 0 0-12.178 10.773c-9.368 9.306-17.242 19.705-23.503 30.902V169.537c0-9.781 7.957-17.738 17.738-17.738zm229.18 187.637c0 33.06-12.962 64.145-36.498 87.528-24.313 24.154-56.237 36.229-88.173 36.226a126.037 126.037 0 0 1-42.328-7.307V247.264c0-4.143-3.357-7.5-7.5-7.5a7.499 7.499 0 0 0-7.5 7.5V449.39a123.906 123.906 0 0 1-14.239-8.563V268.619c0-4.143-3.357-7.5-7.5-7.5s-7.5 3.357-7.5 7.5v159.91a124.367 124.367 0 0 1-1.605-1.566c-23.536-23.382-36.497-54.467-36.497-87.528 0-33.061 12.961-64.146 36.497-87.529 48.62-48.301 127.728-48.301 176.346 0 23.536 23.383 36.498 54.468 36.497 87.53zm-19.438-91.282a141.961 141.961 0 0 0-6.487-6.888 140.515 140.515 0 0 0-8.469-7.754l66.156-65.726 14.848 14.751-66.048 65.617z"/><path d="M70.853 292.693a7.499 7.499 0 0 0-7.5 7.5v1.937c0 4.143 3.357 7.5 7.5 7.5s7.5-3.357 7.5-7.5v-1.937a7.5 7.5 0 0 0-7.5-7.5zm0 75.526a7.499 7.499 0 0 0-7.5 7.5v1.937c0 4.143 3.357 7.5 7.5 7.5s7.5-3.357 7.5-7.5v-1.937a7.5 7.5 0 0 0-7.5-7.5zM220.242 264.74a7.5 7.5 0 0 0 .034 10.606c17.233 17.122 26.725 39.882 26.725 64.089 0 24.206-9.491 46.966-26.725 64.088a7.5 7.5 0 0 0-.034 10.606 7.474 7.474 0 0 0 5.32 2.214 7.48 7.48 0 0 0 5.286-2.18C250.937 394.205 262 367.666 262 339.434s-11.063-54.771-31.152-74.729a7.497 7.497 0 0 0-10.606.035z"/></g></symbol><symbol id="sprite"><symbol id="icon-examination"><g fill="#0078b3"><path d="M175.734 44.121h19.451c8.75 0 16.325-5.122 19.888-12.526a31.318 31.318 0 0 1 20.198 29.293 7.5 7.5 0 1 0 14.998 0c0-20.941-13.981-39.067-33.8-44.607C213.923 6.912 205.348 0 195.186 0h-19.451c-12.162 0-22.057 9.896-22.057 22.061s9.894 22.06 22.056 22.06zm0-29.121h19.451c3.892 0 7.059 3.167 7.059 7.061s-3.167 7.061-7.059 7.061h-19.451c-3.892 0-7.059-3.167-7.059-7.061S171.842 15 175.734 15zm276.029 77.572a7.606 7.606 0 0 0-.512-.565c-32.145-32.021-84.446-32.021-116.591 0l-24.886 24.792a7.5 7.5 0 0 0-.021 10.606 7.498 7.498 0 0 0 10.605.021l24.886-24.792c26.219-26.118 68.823-26.207 95.153-.269 21.714 26.829 20.594 63.96-3.328 110.373a7.5 7.5 0 0 0 6.659 10.938 7.496 7.496 0 0 0 6.671-4.065c27.003-52.391 27.462-95.133 1.364-127.039zm-80.451 134.783c-17.498 0-31.734 14.229-31.734 31.719s14.236 31.719 31.734 31.719 31.734-14.229 31.734-31.719-14.236-31.719-31.734-31.719zm0 48.438c-9.229 0-16.736-7.5-16.736-16.719s7.508-16.719 16.736-16.719c9.228 0 16.736 7.5 16.736 16.719s-7.507 16.719-16.736 16.719z"/><path d="M371.312 194.141c-35.825 0-64.971 29.129-64.971 64.933 0 28.364 18.299 52.523 43.711 61.345v34.917c0 9.533 6.081 17.672 14.57 20.747v15.007c0 58.399-47.546 105.91-105.987 105.91-58.442 0-105.988-47.511-105.988-105.91v-56.906c8.74-2.937 15.056-11.198 15.056-20.912v-21.621h27.628c23.69 28.536 48.193 52.554 64.149 67.321 10.583 9.794 24.369 15.188 38.819 15.188 14.451 0 28.236-5.394 38.82-15.188a7.5 7.5 0 0 0 .411-10.599 7.497 7.497 0 0 0-10.597-.411c-7.802 7.221-17.972 11.198-28.634 11.198-10.661 0-20.831-3.977-28.633-11.198-41.916-38.791-173.821-171.019-113.465-245.597 26.33-25.939 68.934-25.85 95.16.275l57.559 57.181a7.499 7.499 0 1 0 10.569-10.642l-57.551-57.173c-32.145-32.021-84.446-32.021-116.59 0-.18.18-.352.368-.512.565-15.632 19.11-21.747 42.456-18.176 69.389 1.736 13.097 5.816 27.13 12.149 41.946-46.249-3.522-82.81-42.522-82.81-89.955V60.888c0-13.737 9.12-25.8 21.883-29.862 3.443 7.707 11.175 13.095 20.146 13.095h19.452c12.162 0 22.057-9.896 22.057-22.061S129.639 0 117.477 0H98.026C88.053 0 79.61 6.656 76.891 15.758 56.19 20.558 41 39.332 41 60.888v169.874c0 23.182 16.71 42.244 38.999 45.742 2.909 8.787 11.2 15.147 20.953 15.147h22.613v21.621c0 9.35 5.852 17.354 14.085 20.56v57.258c0 66.67 54.274 120.91 120.986 120.91S379.62 457.76 379.62 391.09v-15.007c8.489-3.075 14.571-11.214 14.571-20.747v-35.497c24.568-9.271 42.092-33.006 42.092-60.765-.001-35.804-29.146-64.933-64.971-64.933zM98.026 15h19.452c3.892 0 7.059 3.167 7.059 7.061s-3.167 7.061-7.059 7.061H98.026c-3.892 0-7.059-3.167-7.059-7.061S94.133 15 98.026 15zM80.489 261.343c-14.122-3.101-24.492-15.564-24.492-30.58v-62.588c18.335 30.532 51.653 50.991 89.637 50.991.117 0 .235-.007.352-.008a296.147 296.147 0 0 0 9.457 17.029 356.114 356.114 0 0 0 7.102 11.343h-61.594c-9.251 0-17.187 5.724-20.462 13.813zm65.145 58.989c-3.899 0-7.072-3.167-7.072-7.061V284.15a7.5 7.5 0 0 0-7.499-7.5h-30.112c-3.899 0-7.072-3.167-7.072-7.061s3.172-7.061 7.072-7.061h71.85a479.92 479.92 0 0 0 10.512 14.121h-23.109a7.5 7.5 0 0 0-7.499 7.5v29.121c.001 3.895-3.171 7.062-7.071 7.062zm233.56 35.003c-.001 3.893-3.173 7.061-7.073 7.061-3.899 0-7.071-3.167-7.071-7.061V323.7c2.062.198 4.149.308 6.262.308 2.669 0 5.296-.181 7.882-.495v31.822zm-7.882-46.328c-27.555 0-49.973-22.4-49.973-49.934 0-27.533 22.418-49.933 49.973-49.933s49.973 22.4 49.973 49.933c0 27.534-22.418 49.934-49.973 49.934z"/></g></symbol><symbol id="icon-medical-report"><g fill="#0078b3"><path d="M90.129 436.816H73.5a2.503 2.503 0 0 1-2.5-2.5V162.813a7.5 7.5 0 0 0-15 0v271.504c0 9.649 7.851 17.5 17.5 17.5h16.629a7.5 7.5 0 0 0 0-15.001zM227.125 297.52a7.5 7.5 0 0 0-7.5 7.5v25.019h-42.75v-43.242h13.916a7.5 7.5 0 0 0 0-15h-21.416a7.5 7.5 0 0 0-7.5 7.5v58.242a7.5 7.5 0 0 0 7.5 7.5h57.75a7.5 7.5 0 0 0 7.5-7.5V305.02a7.5 7.5 0 0 0-7.5-7.5z"/><path d="M185.292 291.991a7.5 7.5 0 0 0-3.388 10.051l9.625 19.414a7.5 7.5 0 0 0 13.44 0l28.875-58.242a7.5 7.5 0 0 0-13.439-6.663L198.25 301.24l-2.905-5.861a7.502 7.502 0 0 0-10.053-3.388zm99.583-155.653H371.5a7.5 7.5 0 0 0 0-15h-86.625a7.5 7.5 0 0 0 0 15zm-62.563 4.414h-11.75v-11.914a7.5 7.5 0 0 0-15 0v11.914h-11.75a7.5 7.5 0 0 0 0 15h11.75v11.914a7.5 7.5 0 0 0 15 0v-11.914h11.75a7.5 7.5 0 0 0 0-15zm4.813 237.822h-57.75a7.5 7.5 0 0 0-7.5 7.5v58.242a7.5 7.5 0 0 0 7.5 7.5h57.75a7.5 7.5 0 0 0 7.5-7.5v-58.242a7.5 7.5 0 0 0-7.5-7.5zm-7.5 58.242h-42.75v-43.242h42.75v43.242zM63.5 142.81a7.5 7.5 0 0 0 7.5-7.5V17.5c0-1.378 1.122-2.5 2.5-2.5h307.25c1.378 0 2.5 1.122 2.5 2.5v22.033a7.5 7.5 0 0 0 15 0V17.5c0-9.649-7.851-17.5-17.5-17.5H73.5C63.851 0 56 7.851 56 17.5v117.81a7.5 7.5 0 0 0 7.5 7.5zm336.875 138.694h-134.75a7.5 7.5 0 0 0 0 15h134.75a7.5 7.5 0 0 0 0-15zm0-131.045h-115.5a7.5 7.5 0 0 0 0 15h115.5a7.5 7.5 0 0 0 0-15z"/><path d="M438.5 60.184H131.25c-9.649 0-17.5 7.851-17.5 17.5V494.5c0 9.649 7.851 17.5 17.5 17.5H438.5c9.649 0 17.5-7.851 17.5-17.5V77.684c0-9.65-7.851-17.5-17.5-17.5zM441 494.5c0 1.378-1.122 2.5-2.5 2.5H131.25a2.503 2.503 0 0 1-2.5-2.5V77.684c0-1.378 1.122-2.5 2.5-2.5H438.5c1.378 0 2.5 1.122 2.5 2.5V494.5z"/><path d="M366.687 417.402H265.625a7.5 7.5 0 0 0 0 15h101.062a7.5 7.5 0 0 0 0-15zM203.062 97.07c-28.018 0-50.812 22.96-50.812 51.182s22.794 51.182 50.812 51.182c28.019 0 50.813-22.96 50.813-51.182S231.081 97.07 203.062 97.07zm0 87.364c-19.747 0-35.812-16.231-35.812-36.182s16.065-36.182 35.812-36.182c19.748 0 35.813 16.231 35.813 36.182s-16.065 36.182-35.813 36.182zm197.313 203.847h-134.75a7.5 7.5 0 0 0 0 15h134.75a7.5 7.5 0 0 0 0-15zm-134.75-62.656h101.062a7.5 7.5 0 0 0 0-15H265.625a7.5 7.5 0 0 0 0 15z"/></g></symbol><symbol id="icon-medical"><g fill="#0078b3"><path d="M69.579 338.925v-1.937c0-4.143-3.357-7.5-7.5-7.5a7.499 7.499 0 0 0-7.5 7.5v1.937c0 4.143 3.357 7.5 7.5 7.5s7.5-3.358 7.5-7.5zm-28.94 76.537a7.499 7.499 0 0 0-7.5 7.5v25.314c0 18.051 14.686 32.738 32.738 32.738h.205a32.679 32.679 0 0 0 21.778-8.295 7.5 7.5 0 0 0-9.983-11.195 17.708 17.708 0 0 1-11.796 4.49h-.205c-9.781 0-17.738-7.957-17.738-17.738v-25.314c0-4.143-3.356-7.5-7.499-7.5z"/><path d="M506.932 35.216L476.534 5.017c-6.715-6.671-17.64-6.671-24.353 0l-17.349 17.235a7.5 7.5 0 0 0-.034 10.606 7.498 7.498 0 0 0 10.606.034l17.349-17.235a2.28 2.28 0 0 1 3.208 0l30.398 30.199c.53.526.641 1.121.641 1.527s-.112 1-.641 1.526L364.005 180.397a2.284 2.284 0 0 1-3.209.001l-30.398-30.2c-.53-.526-.641-1.121-.641-1.527s.112-1 .641-1.526l97.842-97.203a7.5 7.5 0 1 0-10.572-10.64l-97.842 97.203a17.037 17.037 0 0 0-5.068 12.167c0 2.833.683 5.559 1.971 7.994l-68.167 67.723c-35.816-24.053-80.471-29.794-120.504-17.214V91.562c0-4.295-2.116-8.104-5.36-10.441v-19.77c5.506-2.953 9.259-8.764 9.259-15.436V17.5c0-9.649-7.851-17.5-17.5-17.5H17.5C7.851 0 0 7.851 0 17.5v28.415c0 6.672 3.753 12.483 9.259 15.436v19.77c-3.244 2.337-5.36 6.146-5.36 10.441v358.714c0 34.035 27.849 61.724 62.08 61.724 19.3 0 37.171-8.697 49.033-23.864a7.5 7.5 0 0 0-1.288-10.528 7.499 7.499 0 0 0-10.528 1.288C94.198 490.401 80.633 497 65.979 497c-25.96 0-47.08-20.96-47.08-46.724V93.391a7.503 7.503 0 0 0 5.36-7.19V63.415h83.44v15.286H40.638c-4.143 0-7.5 3.357-7.5 7.5s3.357 7.5 7.5 7.5h72.419v119.153a139.078 139.078 0 0 0-14.239 7.362v-50.68c0-18.051-14.686-32.738-32.738-32.738h-.205c-18.051 0-32.738 14.686-32.738 32.738v143.215c0 .204.007.407.024.607a139.508 139.508 0 0 0-2.445 26.078c0 37.086 14.534 71.95 40.925 98.169 54.449 54.094 143.041 54.094 197.49 0 26.391-26.219 40.926-61.083 40.926-98.169 0-28.826-8.781-56.308-25.084-79.432l67.513-67.072c6.717 4.706 16.088 4.073 22.092-1.892L506.932 59.55A17.037 17.037 0 0 0 512 47.383c0-4.6-1.8-8.921-5.068-12.167zM29.239 48.415H17.5a2.502 2.502 0 0 1-2.5-2.5V17.5c0-1.379 1.121-2.5 2.5-2.5h11.739v33.415zm29.239 0H44.239V15h14.239v33.415zm29.24 0H73.479V15h14.239v33.415zm15 0V15h11.739c1.379 0 2.5 1.121 2.5 2.5v28.415c0 1.379-1.121 2.5-2.5 2.5h-11.739zM65.877 151.799h.205c9.781 0 17.738 7.957 17.738 17.738v60.956a140.239 140.239 0 0 0-12.178 10.773c-9.368 9.306-17.242 19.705-23.503 30.902V169.537c0-9.781 7.957-17.738 17.738-17.738zm229.18 187.637c0 33.06-12.962 64.145-36.498 87.528-24.313 24.154-56.237 36.229-88.173 36.226a126.037 126.037 0 0 1-42.328-7.307V247.264c0-4.143-3.357-7.5-7.5-7.5a7.499 7.499 0 0 0-7.5 7.5V449.39a123.906 123.906 0 0 1-14.239-8.563V268.619c0-4.143-3.357-7.5-7.5-7.5s-7.5 3.357-7.5 7.5v159.91a124.367 124.367 0 0 1-1.605-1.566c-23.536-23.382-36.497-54.467-36.497-87.528 0-33.061 12.961-64.146 36.497-87.529 48.62-48.301 127.728-48.301 176.346 0 23.536 23.383 36.498 54.468 36.497 87.53zm-19.438-91.282a141.961 141.961 0 0 0-6.487-6.888 140.515 140.515 0 0 0-8.469-7.754l66.156-65.726 14.848 14.751-66.048 65.617z"/><path d="M70.853 292.693a7.499 7.499 0 0 0-7.5 7.5v1.937c0 4.143 3.357 7.5 7.5 7.5s7.5-3.357 7.5-7.5v-1.937a7.5 7.5 0 0 0-7.5-7.5zm0 75.526a7.499 7.499 0 0 0-7.5 7.5v1.937c0 4.143 3.357 7.5 7.5 7.5s7.5-3.357 7.5-7.5v-1.937a7.5 7.5 0 0 0-7.5-7.5zM220.242 264.74a7.5 7.5 0 0 0 .034 10.606c17.233 17.122 26.725 39.882 26.725 64.089 0 24.206-9.491 46.966-26.725 64.088a7.5 7.5 0 0 0-.034 10.606 7.474 7.474 0 0 0 5.32 2.214 7.48 7.48 0 0 0 5.286-2.18C250.937 394.205 262 367.666 262 339.434s-11.063-54.771-31.152-74.729a7.497 7.497 0 0 0-10.606.035z"/></g></symbol></symbol></symbol></svg>