<svg xmlns="http://www.w3.org/2000/svg" width="512" height="512"><path d="M512 94.863V83.215c0-9.488-7.719-17.207-17.207-17.207H367.146a7.5 7.5 0 0 0 0 15h127.647A2.21 2.21 0 0 1 497 83.215v11.648a2.21 2.21 0 0 1-2.207 2.207H367.631a7.5 7.5 0 0 0 0 15h113.838v33.535H312.625a7.5 7.5 0 0 0 0 15h52.421V291.21H263.541v-90.54a7.5 7.5 0 0 0-15 0v90.541H147.036V160.605h50.074a7.5 7.5 0 0 0 0-15H30.531V112.07h135.523c.727 8.016 7.484 14.318 15.687 14.318h37.88v37.88c0 8.685 7.066 15.751 15.751 15.751h41.255c8.685 0 15.751-7.066 15.751-15.751v-37.88h37.88c8.685 0 15.751-7.066 15.751-15.751V69.382c0-8.685-7.066-15.751-15.751-15.751h-37.88v-37.88C292.378 7.066 285.313 0 276.627 0h-41.255c-8.685 0-15.751 7.066-15.751 15.751v37.88h-37.88c-7.527 0-13.838 5.307-15.387 12.376H17.207C7.719 66.008 0 73.727 0 83.215v11.648c0 8.923 6.827 16.281 15.531 17.126v225.257c0 9.649 7.851 17.5 17.5 17.5h15.504v111.191H17.207C7.719 465.938 0 473.657 0 483.145v11.648C0 504.281 7.719 512 17.207 512h477.586c9.488 0 17.207-7.719 17.207-17.207v-11.648c0-9.488-7.719-17.207-17.207-17.207h-31.328V354.746h15.504c9.649 0 17.5-7.851 17.5-17.5v-37.429a7.607 7.607 0 0 0 0-2.212V154.212a7.607 7.607 0 0 0 0-2.212v-40.01c8.704-.845 15.531-8.204 15.531-17.127zm-331.01 9.707V69.382c0-.414.337-.751.751-.751h45.38a7.5 7.5 0 0 0 7.5-7.5v-45.38c0-.414.337-.751.751-.751h41.255c.414 0 .751.337.751.751v45.38a7.5 7.5 0 0 0 7.5 7.5h45.38c.414 0 .751.337.751.751v41.255a.752.752 0 0 1-.751.751h-45.38a7.5 7.5 0 0 0-7.5 7.5v45.38a.752.752 0 0 1-.751.751h-41.255a.752.752 0 0 1-.751-.751v-45.38a7.5 7.5 0 0 0-7.5-7.5h-45.38a.752.752 0 0 1-.751-.751v-6.067zm199.055 56.035h101.423v130.606H380.045V160.605zm-248.009 0V291.21H30.531V160.605h101.505zM17.207 97.07A2.21 2.21 0 0 1 15 94.863V83.215a2.21 2.21 0 0 1 2.207-2.207H165.99V97.07H17.207zm477.586 383.867a2.21 2.21 0 0 1 2.207 2.208v11.648a2.21 2.21 0 0 1-2.207 2.207H17.207A2.21 2.21 0 0 1 15 494.793v-11.648a2.21 2.21 0 0 1 2.207-2.207H398.37a7.5 7.5 0 0 0 0-15h-31.975V364.453h11.621c6.852 0 12.796-3.958 15.667-9.707h54.782v111.191h-22.592a7.5 7.5 0 0 0 0 15h68.92zm-219.379-73.242H263.5v-43.242h87.895v101.484H263.5v-43.242h11.914a7.5 7.5 0 0 0 0-15zM256 349.453H133.984a2.503 2.503 0 0 1-2.5-2.5v-9.121c0-1.378 1.122-2.5 2.5-2.5h244.031c1.378 0 2.5 1.122 2.5 2.5v9.121c0 1.378-1.122 2.5-2.5 2.5H256zm-19.414 73.242H248.5v43.242h-87.895V364.453H248.5v43.242h-11.914a7.5 7.5 0 0 0 0 15zm-102.602-58.242h11.621v101.484h-82.07V354.746h54.782c2.871 5.749 8.816 9.707 15.667 9.707zm347.485-27.207c0 1.378-1.122 2.5-2.5 2.5h-83.453v-1.914c0-9.649-7.851-17.5-17.5-17.5H133.984c-9.649 0-17.5 7.851-17.5 17.5v1.914H33.031a2.503 2.503 0 0 1-2.5-2.5v-31.035h450.938v31.035z" fill="#0078b3"/></svg>