<svg xmlns="http://www.w3.org/2000/svg" viewBox="0 0 512.001 512.001" width="512" height="512"><path d="M201.641 131.044h-38.828l-.191.002a121.626 121.626 0 0 1 3.362-13.706l13.136-42.691c5.44-17.681 2.257-36.355-8.733-51.235C159.396 8.534 142.483 0 123.984 0 55.619 0 0 55.619 0 123.984v58.242C0 250.591 55.619 306.21 123.984 306.21c18.499 0 35.412-8.534 46.401-23.414 10.99-14.88 14.173-33.555 8.733-51.236l-13.136-42.691a121.626 121.626 0 0 1-3.362-13.706l.191.002h19.414a7.5 7.5 0 0 0 .002-14.999h-19.414c-.688 0-1.354.093-1.987.266a122.46 122.46 0 0 1 0-14.654 7.526 7.526 0 0 0 1.987.266h38.828a7.5 7.5 0 0 0 0-15zm-49.995-18.114c-.298.969-.585 1.942-.862 2.917-8.261-.191-16.309-2.014-23.95-5.429-13.187-5.894-23.61-15.804-30.144-28.66a7.501 7.501 0 0 0-10.084-3.288 7.501 7.501 0 0 0-3.288 10.084c7.992 15.723 21.272 28.351 37.395 35.557 8.555 3.824 17.524 6.038 26.737 6.605a136.539 136.539 0 0 0-1.64 14.889H46.328a7.5 7.5 0 0 0 0 15h99.483c.263 4.786.777 9.55 1.54 14.274-9.177.578-18.113 2.789-26.637 6.599-16.123 7.207-29.403 19.834-37.395 35.557a7.5 7.5 0 1 0 13.372 6.796c6.534-12.855 16.958-22.766 30.144-28.66 7.588-3.392 15.575-5.213 23.776-5.425.329 1.181.674 2.36 1.035 3.533l13.136 42.693c4.026 13.083 1.67 26.902-6.462 37.913-8.132 11.011-20.647 17.326-34.336 17.326C63.89 291.211 15 242.321 15 182.227v-58.242C15 63.89 63.89 15 123.984 15c13.688 0 26.204 6.315 34.336 17.326s10.488 24.83 6.462 37.913l-13.136 42.691zM304.535 382.5a7.5 7.5 0 0 0-7.5 7.5v99.939a7.069 7.069 0 0 1-7.061 7.061 7.068 7.068 0 0 1-7.061-7.061V308.418a7.5 7.5 0 0 0-15 0v181.521c0 12.164 9.896 22.061 22.061 22.061s22.061-9.896 22.061-22.061V390a7.5 7.5 0 0 0-7.5-7.5zm-29.121-198.067a7.5 7.5 0 0 0-7.5 7.5v87.364a7.5 7.5 0 0 0 15 0v-87.364a7.5 7.5 0 0 0-7.5-7.5z" fill="#0078b3"/><path d="M304.535 184.433a7.5 7.5 0 0 0-7.5 7.5V360a7.5 7.5 0 0 0 15 0V191.933a7.5 7.5 0 0 0-7.5-7.5z" fill="#0078b3"/><path d="M388.016 0c-18.499 0-35.412 8.534-46.401 23.415-10.99 14.88-14.173 33.555-8.733 51.235l13.136 42.691a121.373 121.373 0 0 1 3.361 13.704h-98.231c-28.222 0-51.182 22.96-51.182 51.182V489.94c0 12.164 9.896 22.061 22.061 22.061s22.061-9.896 22.061-22.061V182.227a7.069 7.069 0 0 1 7.061-7.061h98.231a121.805 121.805 0 0 1-3.361 13.704l-13.136 42.691c-5.44 17.681-2.257 36.355 8.733 51.236 10.99 14.88 27.903 23.414 46.401 23.414 68.365 0 123.984-55.619 123.984-123.984v-58.242C512 55.619 456.381 0 388.016 0zm-136.87 160.167c-12.164-.001-22.061 9.895-22.061 22.06V489.94c0 3.893-3.167 7.061-7.061 7.061s-7.061-3.167-7.061-7.061V182.227c0-19.951 16.231-36.182 36.182-36.182H351.19a122.12 122.12 0 0 1 0 14.122H251.146zM497 182.227c0 60.094-48.89 108.984-108.984 108.984-13.688 0-26.204-6.315-34.336-17.326-8.132-11.011-10.488-24.83-6.462-37.913l13.136-42.691c.361-1.173.707-2.352 1.035-3.533 8.2.212 16.189 2.033 23.776 5.425 13.187 5.894 23.61 15.804 30.144 28.66a7.501 7.501 0 0 0 13.372-6.796c-7.992-15.723-21.272-28.351-37.395-35.557-8.524-3.81-17.459-6.021-26.637-6.599a136.38 136.38 0 0 0 1.561-14.664c.751.253 1.555.39 2.392.39h97.07a7.5 7.5 0 0 0 0-15h-97.07c-.836 0-1.641.137-2.392.39a136.447 136.447 0 0 0-1.661-15.278c9.212-.568 18.183-2.781 26.737-6.605 16.123-7.207 29.403-19.834 37.395-35.557a7.5 7.5 0 1 0-13.372-6.796c-6.534 12.855-16.958 22.766-30.144 28.66-7.642 3.416-15.688 5.238-23.95 5.429-.276-.975-.563-1.947-.862-2.917l-13.136-42.691c-4.026-13.083-1.67-26.902 6.462-37.913C361.812 21.315 374.327 15 388.016 15 448.11 15 497 63.89 497 123.984v58.243z" fill="#0078b3"/></svg>