<svg xmlns="http://www.w3.org/2000/svg" width="512" height="512"><path d="M478.386 222.367c-28.5-46.301-74.285-74.754-99.041-87.592-12.789-6.632-29.109-.629-34.488 12.906l-6.786 17.07c-4.701 11.824.22 25.209 11.446 31.134a232.037 232.037 0 0 1 13.978 8.041l-22.457 18.556a24.215 24.215 0 0 0-6.27 7.882l-21.704 43.407H210.483l-6.139-17.057c17.252-7.596 25.957-27.421 19.479-45.421l-18.985-52.752c-5.161-14.341-18.865-23.976-34.1-23.976-3.338 0-6.642.469-9.856 1.381l-3.917-10.885c17.252-7.596 25.957-27.421 19.479-45.42l-16.867-46.865c-5.161-14.341-18.865-23.977-34.1-23.977-3.702 0-7.363.57-10.905 1.69a25.765 25.765 0 0 0-9.787-8.008C98.524-.467 91.49-.799 84.979 1.545L47.124 15.168C33.86 19.941 26.743 35.043 31.52 48.316L54.223 111.4a7.5 7.5 0 0 0 14.115-5.08L45.634 43.237c-2.017-5.605.98-11.945 6.569-13.956l37.855-13.624c5.599-2.015 11.948.99 13.956 6.569l94.141 261.582a7.498 7.498 0 0 0 7.057 4.96h198.06c9.399 0 17.046 7.647 17.046 17.046v48.654c0 9.399-7.647 17.046-17.046 17.046h-45.223a7.5 7.5 0 0 0 0 15h32.869l-3.985 7.663a26.603 26.603 0 0 1-23.677 14.373H238.754a26.602 26.602 0 0 1-23.677-14.373l-3.985-7.663h117.015a7.5 7.5 0 0 0 0-15H198.739c-20.911 0-39.718-13.22-46.799-32.895L79.564 137.52a7.5 7.5 0 1 0-14.114 5.079l72.375 201.102c8.689 24.144 30.945 40.811 56.269 42.641l7.675 14.758c4.892 9.407 13.004 16.383 22.594 19.897l-32.024 36.19h-48.442c-16.887 0-32.548 9.822-39.903 25.023-6.564 13.565 3.667 29.79 18.68 29.79h284.009c15.053 0 25.24-16.235 18.682-29.79-7.354-15.201-23.017-25.023-39.903-25.023H270.918l29.764-33.635h62.574c15.61 0 29.78-8.603 36.983-22.452l7.768-14.936c15.432-2.296 27.31-15.633 27.31-31.693v-48.654c0-17.67-14.376-32.045-32.045-32.045H367.52l8.511-17.021 26.395-21.81c6.141 6.392 12.036 13.565 17.077 21.464 6.645 10.413 20.363 14.502 31.57 9.247l16.658-7.811c13.196-6.189 18.317-23.027 10.655-35.474zM151.867 110.9l-31.149-86.555a21.06 21.06 0 0 1 4.758-.545c8.929 0 16.961 5.648 19.987 14.056l16.866 46.865c3.675 10.213-.985 21.435-10.462 26.179zm47.38 131.652l-33.268-92.441a21.075 21.075 0 0 1 4.759-.545c8.929 0 16.961 5.648 19.986 14.056l18.985 52.751c3.675 10.213-.985 21.434-10.462 26.179zm186.214 229.636c11.173 0 21.536 6.498 26.403 16.559 1.833 3.794-1.006 8.255-5.18 8.255H122.676c-4.187 0-6.998-4.5-5.18-8.258 4.865-10.058 15.229-16.556 26.401-16.556h241.564zm-134.573-15h-38.52l29.764-33.635h38.52l-29.764 33.635zm114.366-210.991a7.514 7.514 0 0 0-1.931 2.427l-12.574 25.148h-20.916l18.35-36.699a9.303 9.303 0 0 1 2.408-3.028l25.928-21.424a198.777 198.777 0 0 1 14.965 11.902l-26.23 21.674zm101.349-8.075c-.781 2.609-2.613 4.906-5.241 6.138l-16.658 7.811c-4.496 2.108-9.906.421-12.558-3.734-6.958-10.904-15.324-20.485-23.818-28.683-8.642-8.342-17.868-16.095-27.95-22.653-.01-.007-.022-.011-.032-.018a246.843 246.843 0 0 0-23.83-14.362c-4.434-2.341-6.373-7.641-4.509-12.329l6.786-17.071c2.113-5.315 8.561-7.768 13.645-5.132 23.378 12.125 66.569 38.917 93.171 82.14 1.512 2.455 1.762 5.325.994 7.893z" fill="#0078b3"/></svg>