<svg xmlns="http://www.w3.org/2000/svg" viewBox="0 0 511.999 511.999" width="512" height="512"><g fill="#0078b3"><path d="M110.717 368.867a7.5 7.5 0 0 0 0 15h42.776a7.5 7.5 0 0 0 0-15h-42.776zm177.631-128.398a7.5 7.5 0 0 0-7.5-7.5H173.909a7.5 7.5 0 0 0 0 15h106.939a7.5 7.5 0 0 0 7.5-7.5z"/><path d="M230.559 417.402H91.83c-6.893 0-12.5-5.607-12.5-12.5V36.621c0-8.08-2.634-15.558-7.089-21.621h291.241c6.585 0 11.943 5.345 11.943 11.914V250a7.5 7.5 0 0 0 15 0V26.914C390.426 12.074 378.339 0 363.483 0H42.665C22.448 0 6 16.428 6 36.621v67.656c0 9.649 7.851 17.5 17.5 17.5h17.06a7.5 7.5 0 0 0 0-15H23.5a2.503 2.503 0 0 1-2.5-2.5V36.621C21 24.699 30.719 15 42.665 15S64.33 24.699 64.33 36.621v368.281c0 15.164 12.336 27.5 27.5 27.5h138.729a7.5 7.5 0 0 0 0-15z"/><path d="M307.791 211.348a7.5 7.5 0 0 0-7.5-7.5H154.465a7.5 7.5 0 0 0 0 15h145.826a7.5 7.5 0 0 0 7.5-7.5zM176.548 347.246a7.5 7.5 0 0 0-7.5-7.5h-58.331a7.5 7.5 0 0 0 0 15h58.331a7.5 7.5 0 0 0 7.5-7.5zm264.589 25.3a7.495 7.495 0 0 0-8.284 6.625l-12.865 115.605a2.497 2.497 0 0 1-2.484 2.224h-137.65a2.498 2.498 0 0 1-2.485-2.224L264.505 379.17a7.5 7.5 0 0 0-8.284-6.625 7.5 7.5 0 0 0-6.624 8.284l12.865 115.606a17.483 17.483 0 0 0 17.393 15.564h137.65a17.481 17.481 0 0 0 17.392-15.564l12.865-115.605a7.501 7.501 0 0 0-6.625-8.284z"/><path d="M505.654 466.792l-7.777-31.062a11.368 11.368 0 0 0-10.233-8.591v-85.97c6.58-2.719 10.707-8.976 10.586-16.174-.126-7.492-4.819-13.809-11.955-16.095l-129.207-41.384a27.351 27.351 0 0 0-16.777 0L211.083 308.9c-7.136 2.285-11.829 8.603-11.955 16.095-.126 7.491 4.351 13.964 11.406 16.489l128.879 46.126a27.583 27.583 0 0 0 18.533 0l114.698-41.05v80.579a11.37 11.37 0 0 0-10.234 8.59l-7.778 31.063a11.31 11.31 0 0 0 2.069 9.765 11.32 11.32 0 0 0 8.979 4.381h28.926c3.534 0 6.807-1.597 8.98-4.382a11.306 11.306 0 0 0 2.068-9.764zm-152.762-93.306a12.52 12.52 0 0 1-8.424 0L215.589 327.36c-1.231-.44-1.474-1.392-1.462-2.113.012-.721.288-1.665 1.532-2.063L344.867 281.8a12.49 12.49 0 0 1 3.812-.599c1.283 0 2.565.2 3.813.599L481.7 323.185c1.244.398 1.52 1.342 1.532 2.063.012.721-.232 1.673-1.462 2.113l-128.878 46.125zm117.416 92.452l5.966-23.828h7.737l5.966 23.828h-19.669zM166.409 153.105a7.5 7.5 0 0 0 7.5 7.5h106.939a7.5 7.5 0 0 0 0-15H173.909a7.5 7.5 0 0 0-7.5 7.5zm97.217-75.89c0 9.663-3.77 18.747-10.613 25.581-3.87 3.864-8.427 6.737-13.544 8.54a7.5 7.5 0 1 0 4.984 14.148c7.246-2.552 13.691-6.614 19.159-12.074 9.682-9.667 15.015-22.522 15.015-36.195 0-13.673-5.332-26.527-15.015-36.195a7.501 7.501 0 0 0-10.599 10.615c6.844 6.834 10.613 15.918 10.613 25.58z"/><path d="M227.378 50.302a7.5 7.5 0 0 0-7.5 7.5v11.914h-11.943a7.5 7.5 0 0 0 0 15h11.943V96.63a7.5 7.5 0 0 0 15 0V84.716h11.944a7.5 7.5 0 0 0 0-15h-11.944V57.802a7.5 7.5 0 0 0-7.5-7.5z"/><path d="M191.144 41.021c-9.682 9.667-15.014 22.521-15.014 36.194 0 13.673 5.332 26.528 15.015 36.196 5.469 5.46 11.914 9.521 19.159 12.073.824.29 1.665.428 2.491.428a7.502 7.502 0 0 0 2.491-14.576c-5.116-1.801-9.672-4.674-13.543-8.539-6.844-6.833-10.613-15.918-10.613-25.581 0-9.662 3.769-18.747 10.613-25.58a7.5 7.5 0 0 0-10.599-10.615z"/></g></svg>