<svg xmlns="http://www.w3.org/2000/svg" width="512" height="512"><g fill="#0078b3"><path d="M69.579 338.925v-1.937c0-4.143-3.357-7.5-7.5-7.5a7.499 7.499 0 0 0-7.5 7.5v1.937c0 4.143 3.357 7.5 7.5 7.5s7.5-3.358 7.5-7.5zm-28.94 76.537a7.499 7.499 0 0 0-7.5 7.5v25.314c0 18.051 14.686 32.738 32.738 32.738h.205a32.679 32.679 0 0 0 21.778-8.295 7.5 7.5 0 0 0-9.983-11.195 17.708 17.708 0 0 1-11.796 4.49h-.205c-9.781 0-17.738-7.957-17.738-17.738v-25.314c0-4.143-3.356-7.5-7.499-7.5z"/><path d="M506.932 35.216L476.534 5.017c-6.715-6.671-17.64-6.671-24.353 0l-17.349 17.235a7.5 7.5 0 0 0-.034 10.606 7.498 7.498 0 0 0 10.606.034l17.349-17.235a2.28 2.28 0 0 1 3.208 0l30.398 30.199c.53.526.641 1.121.641 1.527s-.112 1-.641 1.526L364.005 180.397a2.284 2.284 0 0 1-3.209.001l-30.398-30.2c-.53-.526-.641-1.121-.641-1.527s.112-1 .641-1.526l97.842-97.203a7.5 7.5 0 1 0-10.572-10.64l-97.842 97.203a17.037 17.037 0 0 0-5.068 12.167c0 2.833.683 5.559 1.971 7.994l-68.167 67.723c-35.816-24.053-80.471-29.794-120.504-17.214V91.562c0-4.295-2.116-8.104-5.36-10.441v-19.77c5.506-2.953 9.259-8.764 9.259-15.436V17.5c0-9.649-7.851-17.5-17.5-17.5H17.5C7.851 0 0 7.851 0 17.5v28.415c0 6.672 3.753 12.483 9.259 15.436v19.77c-3.244 2.337-5.36 6.146-5.36 10.441v358.714c0 34.035 27.849 61.724 62.08 61.724 19.3 0 37.171-8.697 49.033-23.864a7.5 7.5 0 0 0-1.288-10.528 7.499 7.499 0 0 0-10.528 1.288C94.198 490.401 80.633 497 65.979 497c-25.96 0-47.08-20.96-47.08-46.724V93.391a7.503 7.503 0 0 0 5.36-7.19V63.415h83.44v15.286H40.638c-4.143 0-7.5 3.357-7.5 7.5s3.357 7.5 7.5 7.5h72.419v119.153a139.078 139.078 0 0 0-14.239 7.362v-50.68c0-18.051-14.686-32.738-32.738-32.738h-.205c-18.051 0-32.738 14.686-32.738 32.738v143.215c0 .204.007.407.024.607a139.508 139.508 0 0 0-2.445 26.078c0 37.086 14.534 71.95 40.925 98.169 54.449 54.094 143.041 54.094 197.49 0 26.391-26.219 40.926-61.083 40.926-98.169 0-28.826-8.781-56.308-25.084-79.432l67.513-67.072c6.717 4.706 16.088 4.073 22.092-1.892L506.932 59.55A17.037 17.037 0 0 0 512 47.383c0-4.6-1.8-8.921-5.068-12.167zM29.239 48.415H17.5a2.502 2.502 0 0 1-2.5-2.5V17.5c0-1.379 1.121-2.5 2.5-2.5h11.739v33.415zm29.239 0H44.239V15h14.239v33.415zm29.24 0H73.479V15h14.239v33.415zm15 0V15h11.739c1.379 0 2.5 1.121 2.5 2.5v28.415c0 1.379-1.121 2.5-2.5 2.5h-11.739zM65.877 151.799h.205c9.781 0 17.738 7.957 17.738 17.738v60.956a140.239 140.239 0 0 0-12.178 10.773c-9.368 9.306-17.242 19.705-23.503 30.902V169.537c0-9.781 7.957-17.738 17.738-17.738zm229.18 187.637c0 33.06-12.962 64.145-36.498 87.528-24.313 24.154-56.237 36.229-88.173 36.226a126.037 126.037 0 0 1-42.328-7.307V247.264c0-4.143-3.357-7.5-7.5-7.5a7.499 7.499 0 0 0-7.5 7.5V449.39a123.906 123.906 0 0 1-14.239-8.563V268.619c0-4.143-3.357-7.5-7.5-7.5s-7.5 3.357-7.5 7.5v159.91a124.367 124.367 0 0 1-1.605-1.566c-23.536-23.382-36.497-54.467-36.497-87.528 0-33.061 12.961-64.146 36.497-87.529 48.62-48.301 127.728-48.301 176.346 0 23.536 23.383 36.498 54.468 36.497 87.53zm-19.438-91.282a141.961 141.961 0 0 0-6.487-6.888 140.515 140.515 0 0 0-8.469-7.754l66.156-65.726 14.848 14.751-66.048 65.617z"/><path d="M70.853 292.693a7.499 7.499 0 0 0-7.5 7.5v1.937c0 4.143 3.357 7.5 7.5 7.5s7.5-3.357 7.5-7.5v-1.937a7.5 7.5 0 0 0-7.5-7.5zm0 75.526a7.499 7.499 0 0 0-7.5 7.5v1.937c0 4.143 3.357 7.5 7.5 7.5s7.5-3.357 7.5-7.5v-1.937a7.5 7.5 0 0 0-7.5-7.5zM220.242 264.74a7.5 7.5 0 0 0 .034 10.606c17.233 17.122 26.725 39.882 26.725 64.089 0 24.206-9.491 46.966-26.725 64.088a7.5 7.5 0 0 0-.034 10.606 7.474 7.474 0 0 0 5.32 2.214 7.48 7.48 0 0 0 5.286-2.18C250.937 394.205 262 367.666 262 339.434s-11.063-54.771-31.152-74.729a7.497 7.497 0 0 0-10.606.035z"/></g></svg>