<svg xmlns="http://www.w3.org/2000/svg" width="512" height="512"><path d="M150.284 0h-14.352c-12.903 0-23.939 9.301-26.239 22.116L85.18 158.675a7.499 7.499 0 0 0 6.057 8.707 7.494 7.494 0 0 0 8.707-6.057l24.513-136.559c1.016-5.659 5.842-9.767 11.476-9.767h6.852v198.555h-49.7c-.773 0-1.274-.404-1.559-.744a2.257 2.257 0 0 1-.488-1.875l3.521-19.611a7.5 7.5 0 0 0-14.764-2.65l-3.521 19.611a17.248 17.248 0 0 0 3.747 14.149 16.997 16.997 0 0 0 13.063 6.119h.184V484.5c0 15.164 12.336 27.5 27.5 27.5h9.515c15.163 0 27.5-12.336 27.5-27.5V7.5a7.499 7.499 0 0 0-7.499-7.5zm-7.5 484.5c0 6.893-5.607 12.5-12.5 12.5h-9.515c-6.893 0-12.5-5.607-12.5-12.5V257.676h34.515V484.5zm0-241.824h-34.515v-14.121h34.515v14.121zm247.383 145.605h-32.933L348.55 36.427C348.046 16 331.808 0 311.583 0c-20.225 0-36.462 16-36.966 36.427l-8.685 351.854h-31.016c-25.273 0-45.834 20.561-45.834 45.833v32.052c0 25.272 20.561 45.833 45.834 45.833 25.272 0 45.833-20.561 45.833-45.833v-14.35h63.583v14.35c0 25.272 20.561 45.833 45.834 45.833C415.439 512 436 491.439 436 466.167v-32.052c0-25.273-20.561-45.834-45.833-45.834zM265.75 466.167c0 17.001-13.832 30.833-30.833 30.833-17.002 0-30.834-13.832-30.834-30.833v-32.052c0-17.001 13.832-30.833 30.834-30.833h30.833v62.885zm23.863-429.37c.235-9.539 6.164-17.465 14.47-20.485V100c0 4.142 3.357 7.5 7.5 7.5s7.5-3.358 7.5-7.5V16.311c8.306 3.021 14.235 10.947 14.471 20.486l8.676 351.484h-23.147V130c0-4.142-3.357-7.5-7.5-7.5s-7.5 3.358-7.5 7.5v258.282h-23.146l8.676-351.485zm54.72 400.019H280.75v-33.535h63.583v33.535zM421 466.167C421 483.168 407.168 497 390.167 497c-17.002 0-30.834-13.832-30.834-30.833v-62.885h30.834c17.001 0 30.833 13.832 30.833 30.833v32.052z" fill="#0078b3"/></svg>