<?xml version="1.0" encoding="iso-8859-1"?>
<!-- Generator: Adobe Illustrator 19.0.0, SVG Export Plug-In . SVG Version: 6.00 Build 0)  -->
<svg xmlns="http://www.w3.org/2000/svg" xmlns:xlink="http://www.w3.org/1999/xlink" version="1.1" id="Capa_1" x="0px" y="0px" viewBox="0 0 512 512" style="enable-background:new 0 0 512 512;" xml:space="preserve" width="512px" height="512px">
<g>
	<g>
		<path d="M478.386,222.367c-28.5-46.301-74.285-74.754-99.041-87.592c-12.789-6.632-29.109-0.629-34.488,12.906l-6.786,17.07    c-4.701,11.824,0.22,25.209,11.446,31.134c4.743,2.504,9.409,5.206,13.978,8.041l-22.457,18.556    c-2.632,2.175-4.742,4.827-6.27,7.882l-21.704,43.407H210.483l-6.139-17.057c17.252-7.596,25.957-27.421,19.479-45.421    l-18.985-52.752c-5.161-14.341-18.865-23.976-34.1-23.976c-3.338,0-6.642,0.469-9.856,1.381l-3.917-10.885    c17.252-7.596,25.957-27.421,19.479-45.42l-16.867-46.865c-5.161-14.341-18.865-23.977-34.1-23.977    c-3.702,0-7.363,0.57-10.905,1.69c-2.516-3.404-5.849-6.155-9.787-8.008c-6.261-2.948-13.295-3.28-19.806-0.936    c0,0-37.83,13.614-37.855,13.623C33.86,19.941,26.743,35.043,31.52,48.316L54.223,111.4c1.403,3.897,5.699,5.92,9.597,4.517    c3.897-1.402,5.92-5.699,4.518-9.597c0,0-22.683-63.025-22.704-63.083c-2.017-5.605,0.98-11.945,6.569-13.956    c0,0,37.791-13.601,37.855-13.624c5.599-2.015,11.948,0.99,13.956,6.569l94.141,261.582c1.071,2.977,3.894,4.96,7.057,4.96h198.06    c9.399,0,17.046,7.647,17.046,17.046v48.654c0,9.399-7.647,17.046-17.046,17.046h-45.223c-4.142,0-7.5,3.358-7.5,7.5    c0,4.142,3.358,7.5,7.5,7.5h32.869l-3.985,7.663c-4.611,8.865-13.684,14.373-23.677,14.373h-65.952h-58.55    c-9.994,0-19.066-5.508-23.677-14.373l-3.985-7.663h117.015c4.142,0,7.5-3.358,7.5-7.5c0-4.142-3.358-7.5-7.5-7.5H198.739    c-20.911,0-39.718-13.22-46.799-32.895L79.564,137.52c-1.402-3.898-5.699-5.92-9.597-4.518c-3.897,1.403-5.919,5.699-4.517,9.597    l72.375,201.102c8.689,24.144,30.945,40.811,56.269,42.641l7.675,14.758c4.892,9.407,13.004,16.383,22.594,19.897l-32.024,36.19    h-48.442c-16.887,0-32.548,9.822-39.903,25.023C97.43,495.775,107.661,512,122.674,512c0,0,283.751,0,284.009,0    c15.053,0,25.24-16.235,18.682-29.79c-7.354-15.201-23.017-25.023-39.903-25.023H270.918l29.764-33.635h62.574    c15.61,0,29.78-8.603,36.983-22.452l7.768-14.936c15.432-2.296,27.31-15.633,27.31-31.693v-48.654    c0-17.67-14.376-32.045-32.045-32.045H367.52l8.511-17.021l26.395-21.81c6.141,6.392,12.036,13.565,17.077,21.464    c6.645,10.413,20.363,14.502,31.57,9.247c0,0,16.649-7.807,16.658-7.811C480.927,251.652,486.048,234.814,478.386,222.367z     M151.867,110.9l-31.149-86.555c1.563-0.362,3.155-0.545,4.758-0.545c8.929,0,16.961,5.648,19.987,14.056l16.866,46.865    C166.004,94.934,161.344,106.156,151.867,110.9z M199.247,242.552l-33.268-92.441c1.564-0.362,3.156-0.545,4.759-0.545    c8.929,0,16.961,5.648,19.986,14.056l18.985,52.751C213.384,226.586,208.724,237.807,199.247,242.552z M385.461,472.188    c11.173,0,21.536,6.498,26.403,16.559c1.833,3.794-1.006,8.255-5.18,8.255c0,0-283.274,0-284.008,0c-4.187,0-6.998-4.5-5.18-8.258    c4.865-10.058,15.229-16.556,26.401-16.556H385.461z M250.888,457.188h-38.52l29.764-33.635h38.52L250.888,457.188z     M365.254,246.197c-0.806,0.666-1.463,1.493-1.931,2.427l-12.574,25.148h-20.916l18.35-36.699    c0.587-1.174,1.397-2.192,2.408-3.028l25.928-21.424c5.177,3.719,10.17,7.703,14.965,11.902L365.254,246.197z M466.603,238.122    c-0.781,2.609-2.613,4.906-5.241,6.138c0,0-16.642,7.803-16.658,7.811c-4.496,2.108-9.906,0.421-12.558-3.734    c-6.958-10.904-15.324-20.485-23.818-28.683c-8.642-8.342-17.868-16.095-27.95-22.653c-0.01-0.007-0.022-0.011-0.032-0.018    c-7.624-5.203-15.636-10.037-23.83-14.362c-4.434-2.341-6.373-7.641-4.509-12.329c0,0,6.772-17.035,6.786-17.071    c2.113-5.315,8.561-7.768,13.645-5.132c23.378,12.125,66.569,38.917,93.171,82.14    C467.121,232.684,467.371,235.554,466.603,238.122z" fill="#0078b3"/>
	</g>
</g>
<g>
</g>
<g>
</g>
<g>
</g>
<g>
</g>
<g>
</g>
<g>
</g>
<g>
</g>
<g>
</g>
<g>
</g>
<g>
</g>
<g>
</g>
<g>
</g>
<g>
</g>
<g>
</g>
<g>
</g>
</svg>
