<?xml version="1.0" encoding="iso-8859-1"?>
<!-- Generator: Adobe Illustrator 19.0.0, SVG Export Plug-In . SVG Version: 6.00 Build 0)  -->
<svg xmlns="http://www.w3.org/2000/svg" xmlns:xlink="http://www.w3.org/1999/xlink" version="1.1" id="Layer_1" x="0px" y="0px" viewBox="0 0 512 512" style="enable-background:new 0 0 512 512;" xml:space="preserve" width="512px" height="512px">
<g>
	<g>
		<g>
			<path d="M94.863,181.314c4.143,0,7.5-3.358,7.5-7.5v-0.971c0-4.142-3.357-7.5-7.5-7.5c-4.143,0-7.5,3.358-7.5,7.5v0.971     C87.363,177.956,90.721,181.314,94.863,181.314z" fill="#0078b3"/>
			<path d="M119.75,187.982c1.18,0.682,2.47,1.006,3.742,1.006c2.592,0,5.113-1.346,6.502-3.752l0.485-0.841     c2.071-3.587,0.842-8.174-2.746-10.245c-3.587-2.071-8.174-0.842-10.244,2.746l-0.485,0.841     C114.933,181.325,116.162,185.912,119.75,187.982z" fill="#0078b3"/>
			<path d="M140.713,266.217l0.841,0.485c1.181,0.682,2.47,1.006,3.742,1.006c2.592,0,5.113-1.346,6.502-3.752     c2.071-3.587,0.842-8.174-2.746-10.245l-0.841-0.485c-3.586-2.07-8.174-0.842-10.244,2.746     C135.896,259.559,137.125,264.146,140.713,266.217z" fill="#0078b3"/>
			<path d="M45.092,231.085c0-4.142-3.357-7.5-7.5-7.5h-0.971c-4.143,0-7.5,3.358-7.5,7.5c0,4.142,3.357,7.5,7.5,7.5h0.971     C41.734,238.585,45.092,235.228,45.092,231.085z" fill="#0078b3"/>
			<path d="M144.635,231.085c0,4.142,3.357,7.5,7.5,7.5h0.971c4.143,0,7.5-3.358,7.5-7.5c0-4.142-3.357-7.5-7.5-7.5h-0.971     C147.992,223.585,144.635,226.943,144.635,231.085z" fill="#0078b3"/>
			<path d="M144.469,209.951c1.272,0,2.562-0.324,3.742-1.006l0.841-0.485c3.588-2.071,4.817-6.658,2.746-10.245     c-2.07-3.588-6.659-4.816-10.244-2.746l-0.841,0.485c-3.588,2.071-4.817,6.658-2.746,10.245     C139.355,208.605,141.877,209.951,144.469,209.951z" fill="#0078b3"/>
			<path d="M494.792,10.827h-85.586C404.294,4.259,396.456,0,387.642,0H254.357c-9.488,0-17.207,7.719-17.207,17.207v117.456     c0,4.142,3.357,7.5,7.5,7.5s7.5-3.358,7.5-7.5V17.207c0-1.217,0.99-2.207,2.207-2.207h133.286     c6.569,0,11.914,5.345,11.914,11.914v29.121c0,4.142,3.357,7.5,7.5,7.5s7.5-3.358,7.5-7.5V26.914     c0-0.364-0.006-0.726-0.021-1.087h80.258c1.217,0,2.207,0.99,2.207,2.207V268.47c0,1.217-0.99,2.207-2.207,2.207h-80.258     c0.014-0.361,0.021-0.723,0.021-1.087V85.156c0-4.142-3.357-7.5-7.5-7.5s-7.5,3.358-7.5,7.5v184.432     c0,6.569-5.345,11.914-11.914,11.914H338.51c-4.143,0-7.5,3.358-7.5,7.5c0,4.142,3.357,7.5,7.5,7.5h30.355v84.717     c0,25.304-20.586,45.889-45.889,45.889c-25.303,0-45.889-20.586-45.889-45.889v-16.896c13.603-1.334,24.268-12.838,24.268-26.785     v-20.159c14.597-9.494,24.268-25.949,24.268-44.622c0-2.301-0.191-4.617-0.57-6.884l-14.158-84.953     c-3.38-20.276-20.752-34.992-41.307-34.992c-15.919,0-30.702,9.246-37.661,23.556c-1.812,3.725-0.261,8.213,3.464,10.025     c3.725,1.811,8.212,0.261,10.024-3.464c4.467-9.182,13.955-15.116,24.173-15.116c13.193,0,24.342,9.445,26.51,22.458     l14.16,84.954c0.242,1.454,0.365,2.94,0.365,4.417c0,21.058-17.131,38.19-38.19,38.19h-5.689c-21.058,0-38.19-17.132-38.19-38.19     c0-1.477,0.123-2.962,0.366-4.418l11.032-66.192c0.681-4.086-2.08-7.95-6.165-8.631c-4.097-0.685-7.95,2.08-8.631,6.165     l-11.032,66.191c-0.379,2.267-0.57,4.584-0.57,6.885c0,18.673,9.671,35.129,24.268,44.622v20.16     c0,13.947,10.665,25.451,24.268,26.785v16.896c0,33.575,27.314,60.889,60.889,60.889s60.889-27.315,60.889-60.889v-84.717h3.775     c8.814,0,16.652-4.259,21.564-10.827h27.609v102.339c0,60.094-48.89,108.984-108.984,108.984H211.348     c-60.094,0-108.985-48.89-108.986-108.985v-23.691c13.603-1.334,24.268-12.838,24.268-26.785v-17.061     c36.734-13.092,63.096-48.221,63.096-89.393c0-52.307-42.556-94.863-94.863-94.863C42.556,136.222,0,178.777,0,231.085     c0,41.172,26.362,76.302,63.096,89.394v17.061c0,13.947,10.665,25.451,24.268,26.785v23.691     C87.364,456.381,142.983,512,211.348,512h116.484c68.365,0,123.984-55.619,123.984-123.984V285.677h42.977     c9.488,0,17.207-7.719,17.207-17.207V28.034C512,18.546,504.281,10.827,494.792,10.827z M264.736,349.453     c-6.569,0-11.914-5.345-11.914-11.914v-13.438c4.44,1.205,9.108,1.848,13.923,1.848h5.689c4.816,0,9.484-0.643,13.923-1.848     v13.438c0,6.569-5.345,11.914-11.914,11.914H264.736z M15,231.085c0-44.036,35.826-79.862,79.863-79.862     c44.037,0,79.863,35.827,79.863,79.863s-35.826,79.863-79.863,79.863C50.826,310.949,15,275.121,15,231.085z M90.009,349.453     c-6.569,0-11.914-5.345-11.914-11.914v-13.074c5.446,0.976,11.047,1.484,16.768,1.484c5.721,0,11.323-0.508,16.768-1.484v13.074     c0,6.569-5.345,11.914-11.914,11.914H90.009z" fill="#0078b3"/>
			<path d="M41.516,253.226l-0.841,0.485c-3.588,2.071-4.817,6.658-2.746,10.245c1.389,2.406,3.91,3.752,6.502,3.752     c1.272,0,2.562-0.324,3.742-1.006l0.841-0.485c3.588-2.071,4.817-6.658,2.746-10.245     C49.689,252.384,45.101,251.156,41.516,253.226z" fill="#0078b3"/>
			<path d="M296.504,269.59c0-4.142-3.357-7.5-7.5-7.5s-7.5,3.358-7.5,7.5c0,6.569-5.345,11.914-11.914,11.914     c-4.143,0-7.5,3.358-7.5,7.5c0,4.142,3.357,7.5,7.5,7.5C284.431,296.504,296.504,284.43,296.504,269.59z" fill="#0078b3"/>
			<path d="M102.363,292.968v-81.62c0-4.142-3.357-7.5-7.5-7.5c-4.143,0-7.5,3.358-7.5,7.5v81.62c0,4.142,3.357,7.5,7.5,7.5     C99.006,300.468,102.363,297.11,102.363,292.968z" fill="#0078b3"/>
			<path d="M49.014,195.954l-0.841-0.485c-3.586-2.071-8.174-0.842-10.244,2.746c-2.071,3.587-0.842,8.174,2.746,10.245l0.841,0.485     c1.181,0.682,2.47,1.006,3.742,1.006c2.592,0,5.113-1.346,6.502-3.752C53.831,202.612,52.602,198.025,49.014,195.954z" fill="#0078b3"/>
			<path d="M72.237,176.896c-2.071-3.588-6.658-4.816-10.244-2.746c-3.588,2.071-4.817,6.658-2.746,10.245l0.485,0.841     c1.389,2.407,3.909,3.752,6.502,3.752c1.272,0,2.562-0.324,3.742-1.006c3.588-2.071,4.817-6.658,2.746-10.245L72.237,176.896z" fill="#0078b3"/>
		</g>
	</g>
</g>
<g>
</g>
<g>
</g>
<g>
</g>
<g>
</g>
<g>
</g>
<g>
</g>
<g>
</g>
<g>
</g>
<g>
</g>
<g>
</g>
<g>
</g>
<g>
</g>
<g>
</g>
<g>
</g>
<g>
</g>
</svg>
