<svg xmlns="http://www.w3.org/2000/svg" viewBox="0 0 224 224" width="512" height="512"><g fill="none" stroke-miterlimit="10" font-family="none" font-weight="none" font-size="none" text-anchor="none" style="mix-blend-mode:normal"><path d="M0 224V0h224v224z"/><path d="M63.574 35C47.88 35 35 47.879 35 63.574v96.852C35 176.12 47.879 189 63.574 189h96.852C176.12 189 189 176.121 189 160.426V63.574C189 47.88 176.121 35 160.426 35zm0 14h96.852C168.546 49 175 55.453 175 63.574v96.852c0 8.12-6.453 14.574-14.574 14.574H63.574C55.454 175 49 168.547 49 160.426V63.574C49 55.454 55.453 49 63.574 49zm46.457 36.613c-5.14-.054-9.515 0-11.976 1.203-1.64.793-2.899 2.598-2.133 2.68.957.137 3.117.602 4.266 2.16 1.476 1.996 1.421 6.508 1.421 6.508s.82 12.414-1.996 13.973c-1.941 1.066-4.593-1.094-10.336-10.965-2.925-5.086-5.14-10.692-5.14-10.692s-.41-1.039-1.176-1.585c-.93-.684-2.215-.903-2.215-.903l-13.7.082s-2.05.082-2.788.957c-.684.82-.055 2.434-.055 2.434s10.719 25.074 22.86 37.707C98.19 140.766 110.824 140 110.824 140h5.742s1.723-.191 2.598-1.121c.82-.875.793-2.516.793-2.516s-.11-7.683 3.445-8.832c3.528-1.093 8.012 7.438 12.797 10.719 3.637 2.488 6.399 1.941 6.399 1.941l12.797-.191s6.671-.41 3.5-5.687c-.247-.41-1.832-3.883-9.489-10.993-8.039-7.437-6.972-6.234 2.707-19.113 5.88-7.848 8.23-12.633 7.492-14.71-.71-1.942-5.03-1.423-5.03-1.423l-14.41.082s-1.067-.136-1.86.328c-.766.465-1.258 1.559-1.258 1.559s-2.297 6.07-5.332 11.238c-6.399 10.883-8.996 11.485-10.035 10.801-2.434-1.586-1.832-6.344-1.832-9.707 0-10.582 1.613-14.957-3.118-16.105-1.558-.383-2.707-.63-6.699-.657z" fill="#0078b3"/></g></svg>