<?xml version="1.0" encoding="iso-8859-1"?>
<!-- Generator: Adobe Illustrator 19.0.0, SVG Export Plug-In . SVG Version: 6.00 Build 0)  -->
<svg xmlns="http://www.w3.org/2000/svg" xmlns:xlink="http://www.w3.org/1999/xlink" version="1.1" id="Layer_1" x="0px" y="0px" viewBox="0 0 512 512" style="enable-background:new 0 0 512 512;" xml:space="preserve" width="512px" height="512px">
<g>
	<g>
		<g>
			<path d="M69.579,338.925v-1.937c0-4.143-3.357-7.5-7.5-7.5c-4.143,0-7.5,3.357-7.5,7.5v1.937c0,4.143,3.357,7.5,7.5,7.5     S69.579,343.067,69.579,338.925z" fill="#0078b3"/>
			<path d="M40.639,415.462c-4.143,0-7.5,3.357-7.5,7.5v25.314c0,18.051,14.686,32.738,32.738,32.738h0.205     c8.045,0,15.779-2.945,21.778-8.295c3.091-2.756,3.363-7.497,0.606-10.589c-2.755-3.09-7.496-3.364-10.589-0.606     c-3.248,2.895-7.438,4.49-11.796,4.49h-0.205c-9.781,0-17.738-7.957-17.738-17.738v-25.314     C48.138,418.819,44.782,415.462,40.639,415.462z" fill="#0078b3"/>
			<path d="M506.932,35.216L476.534,5.017c-6.715-6.671-17.64-6.671-24.353,0l-17.349,17.235c-2.938,2.918-2.954,7.668-0.034,10.606     c2.919,2.939,7.668,2.954,10.606,0.034l17.349-17.235c0.885-0.879,2.323-0.879,3.208,0l30.398,30.199     c0.53,0.526,0.641,1.121,0.641,1.527s-0.112,1-0.641,1.526L364.005,180.397c-0.885,0.879-2.324,0.878-3.209,0.001l-30.398-30.2     c-0.53-0.526-0.641-1.121-0.641-1.527s0.112-1,0.641-1.526l97.842-97.203c2.938-2.918,2.954-7.668,0.034-10.606     c-2.918-2.938-7.667-2.952-10.606-0.034l-97.842,97.203c-3.268,3.247-5.068,7.568-5.068,12.167c0,2.833,0.683,5.559,1.971,7.994     l-68.167,67.723c-35.816-24.053-80.471-29.794-120.504-17.214V91.562c0-4.295-2.116-8.104-5.36-10.441v-19.77     c5.506-2.953,9.259-8.764,9.259-15.436V17.5c0-9.649-7.851-17.5-17.5-17.5H17.5C7.851,0,0,7.851,0,17.5v28.415     c0,6.672,3.753,12.483,9.259,15.436v19.77c-3.244,2.337-5.36,6.146-5.36,10.441v358.714c0,34.035,27.849,61.724,62.08,61.724     c19.3,0,37.171-8.697,49.033-23.864c2.552-3.262,1.975-7.976-1.288-10.528c-3.26-2.551-7.975-1.977-10.528,1.288     C94.198,490.401,80.633,497,65.979,497c-25.96,0-47.08-20.96-47.08-46.724V93.391c3.099-0.92,5.36-3.792,5.36-7.19V63.415h83.44     v15.286H40.638c-4.143,0-7.5,3.357-7.5,7.5s3.357,7.5,7.5,7.5h72.419v119.153c-4.851,2.163-9.614,4.622-14.239,7.362v-50.68     c0-18.051-14.686-32.738-32.738-32.738h-0.205c-18.051,0-32.738,14.686-32.738,32.738v143.215c0,0.204,0.007,0.407,0.024,0.607     c-1.618,8.508-2.445,17.229-2.445,26.078c0,37.086,14.534,71.95,40.925,98.169c54.449,54.094,143.041,54.094,197.49,0     c26.391-26.219,40.926-61.083,40.926-98.169c0-28.826-8.781-56.308-25.084-79.432l67.513-67.072     c6.717,4.706,16.088,4.073,22.092-1.892L506.932,59.55C510.2,56.303,512,51.982,512,47.383     C512,42.783,510.2,38.462,506.932,35.216z M29.239,48.415H17.5c-1.379,0-2.5-1.121-2.5-2.5V17.5c0-1.379,1.121-2.5,2.5-2.5     h11.739V48.415z M58.478,48.415H44.239V15h14.239V48.415z M87.718,48.415H73.479V15h14.239V48.415z M102.718,48.415V15h11.739     c1.379,0,2.5,1.121,2.5,2.5v28.415c0,1.379-1.121,2.5-2.5,2.5H102.718z M65.877,151.799h0.205     c9.781,0,17.738,7.957,17.738,17.738v60.956c-4.216,3.313-8.286,6.907-12.178,10.773c-9.368,9.306-17.242,19.705-23.503,30.902     V169.537C48.139,159.756,56.096,151.799,65.877,151.799z M295.057,339.436c0,33.06-12.962,64.145-36.498,87.528     c-24.313,24.154-56.237,36.229-88.173,36.226c-14.337-0.001-28.682-2.437-42.328-7.307V247.264c0-4.143-3.357-7.5-7.5-7.5     c-4.143,0-7.5,3.357-7.5,7.5V449.39c-4.889-2.51-9.652-5.367-14.239-8.563V268.619c0-4.143-3.357-7.5-7.5-7.5s-7.5,3.357-7.5,7.5     v159.91c-0.538-0.515-1.074-1.039-1.605-1.566c-23.536-23.382-36.497-54.467-36.497-87.528c0-33.061,12.961-64.146,36.497-87.529     c48.62-48.301,127.728-48.301,176.346,0C282.096,275.289,295.058,306.374,295.057,339.436z M275.619,248.154     c-2.075-2.356-4.239-4.655-6.487-6.888c-2.739-2.721-5.567-5.308-8.469-7.754l66.156-65.726l14.848,14.751L275.619,248.154z" fill="#0078b3"/>
			<path d="M70.853,292.693c-4.143,0-7.5,3.357-7.5,7.5v1.937c0,4.143,3.357,7.5,7.5,7.5c4.143,0,7.5-3.357,7.5-7.5v-1.937     C78.353,296.051,74.995,292.693,70.853,292.693z" fill="#0078b3"/>
			<path d="M70.853,368.219c-4.143,0-7.5,3.357-7.5,7.5v1.937c0,4.143,3.357,7.5,7.5,7.5c4.143,0,7.5-3.357,7.5-7.5v-1.937     C78.353,371.576,74.995,368.219,70.853,368.219z" fill="#0078b3"/>
			<path d="M220.242,264.74c-2.92,2.938-2.904,7.688,0.034,10.606c17.233,17.122,26.725,39.882,26.725,64.089     c0,24.206-9.491,46.966-26.725,64.088c-2.938,2.919-2.954,7.668-0.034,10.606c1.466,1.476,3.393,2.214,5.32,2.214     c1.911,0,3.823-0.727,5.286-2.18C250.937,394.205,262,367.666,262,339.434s-11.063-54.771-31.152-74.729     C227.91,261.784,223.161,261.801,220.242,264.74z" fill="#0078b3"/>
		</g>
	</g>
</g>
<g>
</g>
<g>
</g>
<g>
</g>
<g>
</g>
<g>
</g>
<g>
</g>
<g>
</g>
<g>
</g>
<g>
</g>
<g>
</g>
<g>
</g>
<g>
</g>
<g>
</g>
<g>
</g>
<g>
</g>
</svg>
