<?xml version="1.0" encoding="iso-8859-1"?>
<!-- Generator: Adobe Illustrator 19.0.0, SVG Export Plug-In . SVG Version: 6.00 Build 0)  -->
<svg xmlns="http://www.w3.org/2000/svg" xmlns:xlink="http://www.w3.org/1999/xlink" version="1.1" id="Layer_1" x="0px" y="0px" viewBox="0 0 512 512" style="enable-background:new 0 0 512 512;" xml:space="preserve" width="512px" height="512px">
<g>
	<g>
		<g>
			<path d="M150.284,0h-14.352c-12.903,0-23.939,9.301-26.239,22.116L85.18,158.675c-0.732,4.077,1.979,7.976,6.057,8.707     c4.085,0.733,7.976-1.98,8.707-6.057l24.513-136.559c1.016-5.659,5.842-9.767,11.476-9.767h6.852v198.555h-49.7     c-0.773,0-1.274-0.404-1.559-0.744c-0.253-0.303-0.654-0.95-0.488-1.875l3.521-19.611c0.732-4.077-1.979-7.975-6.057-8.707     c-4.077-0.731-7.975,1.98-8.707,6.057l-3.521,19.611c-0.908,5.06,0.458,10.216,3.747,14.149     c3.253,3.889,8.015,6.119,13.063,6.119h0.184V484.5c0,15.164,12.336,27.5,27.5,27.5h9.515c15.163,0,27.5-12.336,27.5-27.5V7.5     C157.784,3.358,154.426,0,150.284,0z M142.784,484.5c0,6.893-5.607,12.5-12.5,12.5h-9.515c-6.893,0-12.5-5.607-12.5-12.5V257.676     h34.515V484.5z M142.784,242.676h-34.515v-14.121h34.515V242.676z" fill="#0078b3"/>
			<path d="M390.167,388.281h-32.933L348.55,36.427C348.046,16,331.808,0,311.583,0c-20.225,0-36.462,16-36.966,36.427     l-8.685,351.854h-31.016c-25.273,0-45.834,20.561-45.834,45.833v32.052c0,25.272,20.561,45.833,45.834,45.833     c25.272,0,45.833-20.561,45.833-45.833v-14.35h63.583v14.35c0,25.272,20.561,45.833,45.834,45.833     C415.439,512,436,491.439,436,466.167v-32.052C436,408.842,415.439,388.281,390.167,388.281z M265.75,466.167     c0,17.001-13.832,30.833-30.833,30.833c-17.002,0-30.834-13.832-30.834-30.833v-32.052c0-17.001,13.832-30.833,30.834-30.833     h30.833V466.167z M289.613,36.797c0.235-9.539,6.164-17.465,14.47-20.485V100c0,4.142,3.357,7.5,7.5,7.5s7.5-3.358,7.5-7.5     V16.311c8.306,3.021,14.235,10.947,14.471,20.486l8.676,351.484h-23.147V130c0-4.142-3.357-7.5-7.5-7.5s-7.5,3.358-7.5,7.5     v258.282h-23.146L289.613,36.797z M344.333,436.816H280.75v-33.535h63.583V436.816z M421,466.167     C421,483.168,407.168,497,390.167,497c-17.002,0-30.834-13.832-30.834-30.833v-62.885h30.834     c17.001,0,30.833,13.832,30.833,30.833V466.167z" fill="#0078b3"/>
		</g>
	</g>
</g>
<g>
</g>
<g>
</g>
<g>
</g>
<g>
</g>
<g>
</g>
<g>
</g>
<g>
</g>
<g>
</g>
<g>
</g>
<g>
</g>
<g>
</g>
<g>
</g>
<g>
</g>
<g>
</g>
<g>
</g>
</svg>
