<?xml version="1.0" encoding="iso-8859-1"?>
<!-- Generator: Adobe Illustrator 19.0.0, SVG Export Plug-In . SVG Version: 6.00 Build 0)  -->
<svg xmlns="http://www.w3.org/2000/svg" xmlns:xlink="http://www.w3.org/1999/xlink" version="1.1" id="Layer_1" x="0px" y="0px" viewBox="0 0 512 512" style="enable-background:new 0 0 512 512;" xml:space="preserve" width="512px" height="512px">
<g>
	<g>
		<g>
			<path d="M175.734,44.121h19.451c8.75,0,16.325-5.122,19.888-12.526c11.976,4.535,20.198,16.085,20.198,29.293     c0,4.142,3.357,7.5,7.499,7.5c4.141,0,7.499-3.358,7.499-7.5c0-20.941-13.981-39.067-33.8-44.607     C213.923,6.912,205.348,0,195.186,0h-19.451c-12.162,0-22.057,9.896-22.057,22.061C153.678,34.226,163.572,44.121,175.734,44.121     z M175.734,15h19.451c3.892,0,7.059,3.167,7.059,7.061c0,3.894-3.167,7.061-7.059,7.061h-19.451     c-3.892,0-7.059-3.167-7.059-7.061C168.675,18.167,171.842,15,175.734,15z" fill="#0078b3"/>
			<path d="M451.763,92.572c-0.161-0.197-0.332-0.385-0.512-0.565c-32.145-32.021-84.446-32.021-116.591,0l-24.886,24.792     c-2.935,2.923-2.944,7.671-0.021,10.606c2.921,2.935,7.669,2.944,10.605,0.021l24.886-24.792     c26.219-26.118,68.823-26.207,95.153-0.269c21.714,26.829,20.594,63.96-3.328,110.373c-1.898,3.682-0.452,8.205,3.229,10.103     c1.099,0.566,2.273,0.835,3.43,0.835c2.718,0,5.34-1.482,6.671-4.065C477.402,167.22,477.861,124.478,451.763,92.572z" fill="#0078b3"/>
			<path d="M371.312,227.355c-17.498,0-31.734,14.229-31.734,31.719s14.236,31.719,31.734,31.719     c17.498,0,31.734-14.229,31.734-31.719S388.81,227.355,371.312,227.355z M371.312,275.793c-9.229,0-16.736-7.5-16.736-16.719     s7.508-16.719,16.736-16.719c9.228,0,16.736,7.5,16.736,16.719S380.541,275.793,371.312,275.793z" fill="#0078b3"/>
			<path d="M371.312,194.141c-35.825,0-64.971,29.129-64.971,64.933c0,28.364,18.299,52.523,43.711,61.345v34.917     c0,9.533,6.081,17.672,14.57,20.747v15.007c0,58.399-47.546,105.91-105.987,105.91c-58.442,0-105.988-47.511-105.988-105.91     v-56.906c8.74-2.937,15.056-11.198,15.056-20.912v-21.621h27.628c23.69,28.536,48.193,52.554,64.149,67.321     c10.583,9.794,24.369,15.188,38.819,15.188c14.451,0,28.236-5.394,38.82-15.188c3.04-2.813,3.224-7.559,0.411-10.599     c-2.813-3.041-7.558-3.225-10.597-0.411c-7.802,7.221-17.972,11.198-28.634,11.198c-10.661,0-20.831-3.977-28.633-11.198     C227.75,309.171,95.845,176.943,156.201,102.365c26.33-25.939,68.934-25.85,95.16,0.275l57.559,57.181     c2.938,2.918,7.686,2.903,10.605-0.036c2.918-2.938,2.903-7.688-0.036-10.606l-57.551-57.173     c-32.145-32.021-84.446-32.021-116.59,0c-0.18,0.18-0.352,0.368-0.512,0.565c-15.632,19.11-21.747,42.456-18.176,69.389     c1.736,13.097,5.816,27.13,12.149,41.946c-46.249-3.522-82.81-42.522-82.81-89.955V60.888c0-13.737,9.12-25.8,21.883-29.862     c3.443,7.707,11.175,13.095,20.146,13.095h19.452c12.162,0,22.057-9.896,22.057-22.061S129.639,0,117.477,0H98.026     C88.053,0,79.61,6.656,76.891,15.758C56.19,20.558,41,39.332,41,60.888v169.874c0,23.182,16.71,42.244,38.999,45.742     c2.909,8.787,11.2,15.147,20.953,15.147h22.613v21.621c0,9.35,5.852,17.354,14.085,20.56v57.258     c0,66.67,54.274,120.91,120.986,120.91S379.62,457.76,379.62,391.09v-15.007c8.489-3.075,14.571-11.214,14.571-20.747v-35.497     c24.568-9.271,42.092-33.006,42.092-60.765C436.282,223.27,407.137,194.141,371.312,194.141z M98.026,15h19.452     c3.892,0,7.059,3.167,7.059,7.061c0,3.894-3.167,7.061-7.059,7.061H98.026c-3.892,0-7.059-3.167-7.059-7.061     C90.967,18.167,94.133,15,98.026,15z M80.489,261.343c-14.122-3.101-24.492-15.564-24.492-30.58v-62.588     c18.335,30.532,51.653,50.991,89.637,50.991c0.117,0,0.235-0.007,0.352-0.008c2.861,5.582,6.002,11.257,9.457,17.029     c2.28,3.808,4.658,7.589,7.102,11.343h-61.594C91.7,247.53,83.764,253.254,80.489,261.343z M145.634,320.332     c-3.899,0-7.072-3.167-7.072-7.061V284.15c0-4.142-3.357-7.5-7.499-7.5h-30.112c-3.899,0-7.072-3.167-7.072-7.061     c0-3.894,3.172-7.061,7.072-7.061h71.85c3.424,4.784,6.938,9.496,10.512,14.121h-23.109c-4.141,0-7.499,3.358-7.499,7.5v29.121     C152.706,317.165,149.534,320.332,145.634,320.332z M379.194,355.335L379.194,355.335c-0.001,3.893-3.173,7.061-7.073,7.061     c-3.899,0-7.071-3.167-7.071-7.061V323.7c2.062,0.198,4.149,0.308,6.262,0.308c2.669,0,5.296-0.181,7.882-0.495V355.335z      M371.312,309.007c-27.555,0-49.973-22.4-49.973-49.934c0-27.533,22.418-49.933,49.973-49.933s49.973,22.4,49.973,49.933     C421.285,286.607,398.867,309.007,371.312,309.007z" fill="#0078b3"/>
		</g>
	</g>
</g>
<g>
</g>
<g>
</g>
<g>
</g>
<g>
</g>
<g>
</g>
<g>
</g>
<g>
</g>
<g>
</g>
<g>
</g>
<g>
</g>
<g>
</g>
<g>
</g>
<g>
</g>
<g>
</g>
<g>
</g>
</svg>
