<?xml version="1.0" encoding="iso-8859-1"?>
<!-- Generator: Adobe Illustrator 19.0.0, SVG Export Plug-In . SVG Version: 6.00 Build 0)  -->
<svg xmlns="http://www.w3.org/2000/svg" xmlns:xlink="http://www.w3.org/1999/xlink" version="1.1" id="Layer_1" x="0px" y="0px" viewBox="0 0 512 512" style="enable-background:new 0 0 512 512;" xml:space="preserve" width="512px" height="512px">
<g>
	<g>
		<path d="M512,94.863V83.215c0-9.488-7.719-17.207-17.207-17.207H367.146c-4.142,0-7.5,3.358-7.5,7.5c0,4.142,3.358,7.5,7.5,7.5    h127.647c1.217,0,2.207,0.99,2.207,2.207v11.648c0,1.217-0.99,2.207-2.207,2.207H367.631c-4.142,0-7.5,3.358-7.5,7.5    c0,4.142,3.358,7.5,7.5,7.5h113.838v33.535H312.625c-4.142,0-7.5,3.358-7.5,7.5c0,4.142,3.358,7.5,7.5,7.5h52.421V291.21H263.541    v-90.54c0-4.142-3.358-7.5-7.5-7.5c-4.142,0-7.5,3.358-7.5,7.5v90.541H147.036V160.605h50.074c4.142,0,7.5-3.358,7.5-7.5    c0-4.142-3.358-7.5-7.5-7.5H30.531V112.07h135.523c0.727,8.016,7.484,14.318,15.687,14.318h37.88v37.88    c0,8.685,7.066,15.751,15.751,15.751h41.255c8.685,0,15.751-7.066,15.751-15.751v-37.88h37.88c8.685,0,15.751-7.066,15.751-15.751    V69.382c0-8.685-7.066-15.751-15.751-15.751h-37.88v-37.88C292.378,7.066,285.313,0,276.627,0h-41.255    c-8.685,0-15.751,7.066-15.751,15.751v37.88h-37.88c-7.527,0-13.838,5.307-15.387,12.376H17.207C7.719,66.008,0,73.727,0,83.215    v11.648c0,8.923,6.827,16.281,15.531,17.126v225.257c0,9.649,7.851,17.5,17.5,17.5h15.504v111.191H17.207    C7.719,465.938,0,473.657,0,483.145v11.648C0,504.281,7.719,512,17.207,512h477.586c9.488,0,17.207-7.719,17.207-17.207v-11.648    c0-9.488-7.719-17.207-17.207-17.207h-31.328V354.746h15.504c9.649,0,17.5-7.851,17.5-17.5v-37.429    c0.053-0.361,0.081-0.73,0.081-1.106s-0.028-0.746-0.081-1.106V154.212c0.053-0.361,0.081-0.73,0.081-1.106    c0-0.376-0.028-0.746-0.081-1.106v-40.01C505.173,111.145,512,103.786,512,94.863z M180.99,104.57V73.595c0-0.029,0-0.058,0-0.087    s0-0.058,0-0.087v-4.039c0-0.414,0.337-0.751,0.751-0.751h45.38c4.142,0,7.5-3.358,7.5-7.5v-45.38    c0-0.414,0.337-0.751,0.751-0.751h41.255c0.414,0,0.751,0.337,0.751,0.751v45.38c0,4.142,3.358,7.5,7.5,7.5h45.38    c0.414,0,0.751,0.337,0.751,0.751v41.255c0,0.414-0.337,0.751-0.751,0.751h-45.38c-4.142,0-7.5,3.358-7.5,7.5v45.38    c0,0.414-0.337,0.751-0.751,0.751h-41.255c-0.414,0-0.751-0.337-0.751-0.751v-45.38c0-4.142-3.358-7.5-7.5-7.5h-45.38    c-0.414,0-0.751-0.337-0.751-0.751V104.57z M380.045,160.605h101.423v130.606H380.045V160.605z M132.036,160.605V291.21H30.531    V160.605H132.036z M17.207,97.07C15.99,97.07,15,96.08,15,94.863V83.215c0-1.217,0.99-2.207,2.207-2.207H165.99V97.07H17.207z     M494.793,480.937L494.793,480.937c1.217,0.001,2.207,0.991,2.207,2.208v11.648c0,1.217-0.99,2.207-2.207,2.207H17.207    C15.99,497,15,496.01,15,494.793v-11.648c0-1.217,0.99-2.207,2.207-2.207H398.37c4.142,0,7.5-3.358,7.5-7.5    c0-4.142-3.358-7.5-7.5-7.5h-31.975V364.453h11.621c6.852,0,12.796-3.958,15.667-9.707h54.782v111.191h-22.592    c-4.142,0-7.5,3.358-7.5,7.5c0,4.142,3.358,7.5,7.5,7.5H494.793z M275.414,407.695H263.5v-43.242h87.895v101.484H263.5v-43.242    h11.914c4.142,0,7.5-3.358,7.5-7.5C282.914,411.053,279.556,407.695,275.414,407.695z M256,349.453H133.984    c-1.378,0-2.5-1.122-2.5-2.5v-9.121c0-1.378,1.122-2.5,2.5-2.5h244.031c1.378,0,2.5,1.122,2.5,2.5v9.121    c0,1.378-1.122,2.5-2.5,2.5H256z M236.586,422.695H248.5v43.242h-87.895V364.453H248.5v43.242h-11.914c-4.142,0-7.5,3.358-7.5,7.5    C229.086,419.337,232.444,422.695,236.586,422.695z M133.984,364.453h11.621v101.484h-82.07V354.746h54.782    C121.188,360.495,127.133,364.453,133.984,364.453z M481.469,337.246c0,1.378-1.122,2.5-2.5,2.5h-83.453v-1.914    c0-9.649-7.851-17.5-17.5-17.5H133.984c-9.649,0-17.5,7.851-17.5,17.5v1.914H33.031c-1.378,0-2.5-1.122-2.5-2.5v-31.035h450.938    V337.246z" fill="#0078b3"/>
	</g>
</g>
<g>
</g>
<g>
</g>
<g>
</g>
<g>
</g>
<g>
</g>
<g>
</g>
<g>
</g>
<g>
</g>
<g>
</g>
<g>
</g>
<g>
</g>
<g>
</g>
<g>
</g>
<g>
</g>
<g>
</g>
</svg>
