<?xml version="1.0"?>
<svg xmlns="http://www.w3.org/2000/svg" xmlns:xlink="http://www.w3.org/1999/xlink" version="1.1" viewBox="0 0 224 224" width="512px" height="512px"><g fill="none" fill-rule="nonzero" stroke="none" stroke-width="1" stroke-linecap="butt" stroke-linejoin="miter" stroke-miterlimit="10" stroke-dasharray="" stroke-dashoffset="0" font-family="none" font-weight="none" font-size="none" text-anchor="none" style="mix-blend-mode: normal"><path d="M0,224v-224h224v224z" fill="none"/><g fill="#0078b3"><g id="surface1"><path d="M63.57422,35c-15.69531,0 -28.57422,12.87891 -28.57422,28.57422v96.85157c0,15.69531 12.87891,28.57422 28.57422,28.57422h96.85157c15.69531,0 28.57422,-12.87891 28.57422,-28.57422v-96.85157c0,-15.69531 -12.87891,-28.57422 -28.57422,-28.57422zM63.57422,49h96.85157c8.12109,0 14.57422,6.45313 14.57422,14.57422v96.85157c0,8.12109 -6.45312,14.57422 -14.57422,14.57422h-96.85157c-8.12109,0 -14.57422,-6.45312 -14.57422,-14.57422v-96.85157c0,-8.12109 6.45313,-14.57422 14.57422,-14.57422zM110.03125,85.61328c-5.14062,-0.05469 -9.51562,0 -11.97656,1.20313c-1.64062,0.79297 -2.89844,2.59766 -2.13282,2.67968c0.95703,0.13672 3.11719,0.60157 4.26563,2.16016c1.47657,1.99609 1.42188,6.50782 1.42188,6.50782c0,0 0.82032,12.41406 -1.99609,13.97265c-1.94141,1.06641 -4.59375,-1.09375 -10.33594,-10.96484c-2.92578,-5.08593 -5.14062,-10.69141 -5.14062,-10.69141c0,0 -0.41015,-1.03906 -1.17578,-1.58593c-0.92969,-0.68359 -2.21485,-0.90234 -2.21485,-0.90234l-13.69922,0.08203c0,0 -2.05078,0.08203 -2.78906,0.95703c-0.6836,0.82032 -0.05469,2.43359 -0.05469,2.43359c0,0 10.71875,25.07422 22.85938,37.70703c11.12891,11.59375 23.76172,10.82813 23.76172,10.82813h5.74219c0,0 1.72266,-0.19141 2.59766,-1.12109c0.82031,-0.875 0.79297,-2.51562 0.79297,-2.51562c0,0 -0.10937,-7.68359 3.44531,-8.83203c3.52735,-1.09375 8.01172,7.4375 12.79688,10.71875c3.63672,2.48828 6.39844,1.94141 6.39844,1.94141l12.79688,-0.19141c0,0 6.67188,-0.41016 3.5,-5.6875c-0.24609,-0.41016 -1.83203,-3.88281 -9.48828,-10.99218c-8.03906,-7.4375 -6.97266,-6.23437 2.70703,-19.11328c5.87891,-7.84766 8.23047,-12.63282 7.49218,-14.71094c-0.71093,-1.9414 -5.03125,-1.42187 -5.03125,-1.42187l-14.41015,0.08203c0,0 -1.06641,-0.13672 -1.85937,0.32813c-0.76562,0.46484 -1.25782,1.55859 -1.25782,1.55859c0,0 -2.29687,6.07032 -5.33203,11.23828c-6.39843,10.88282 -8.99609,11.48438 -10.03515,10.80078c-2.4336,-1.58594 -1.83203,-6.34375 -1.83203,-9.70703c0,-10.58203 1.61328,-14.95703 -3.11719,-16.10547c-1.55859,-0.38282 -2.70703,-0.62891 -6.69922,-0.65625z"/></g></g></g></svg>
