<?xml version="1.0" encoding="iso-8859-1"?>
<!-- Generator: Adobe Illustrator 19.0.0, SVG Export Plug-In . SVG Version: 6.00 Build 0)  -->
<svg xmlns="http://www.w3.org/2000/svg" xmlns:xlink="http://www.w3.org/1999/xlink" version="1.1" id="Layer_1" x="0px" y="0px" viewBox="0 0 511.999 511.999" style="enable-background:new 0 0 511.999 511.999;" xml:space="preserve" width="512px" height="512px">
<g>
	<g>
		<g>
			<path d="M110.717,368.867c-4.142,0-7.5,3.358-7.5,7.5c0,4.142,3.358,7.5,7.5,7.5h42.776c4.142,0,7.5-3.358,7.5-7.5     c0-4.142-3.358-7.5-7.5-7.5H110.717z" fill="#0078b3"/>
			<path d="M288.348,240.469c0-4.142-3.358-7.5-7.5-7.5H173.909c-4.142,0-7.5,3.358-7.5,7.5c0,4.142,3.358,7.5,7.5,7.5h106.939     C284.99,247.969,288.348,244.611,288.348,240.469z" fill="#0078b3"/>
			<path d="M230.559,417.402H91.83c-6.893,0-12.5-5.607-12.5-12.5V36.621c0-8.08-2.634-15.558-7.089-21.621h291.241     c6.585,0,11.943,5.345,11.943,11.914V250c0,4.142,3.358,7.5,7.5,7.5c4.142,0,7.5-3.358,7.5-7.5V26.914     C390.426,12.074,378.339,0,363.483,0H42.665C22.448,0,6,16.428,6,36.621v67.656c0,9.649,7.851,17.5,17.5,17.5h17.06     c4.142,0,7.5-3.358,7.5-7.5c0-4.142-3.358-7.5-7.5-7.5H23.5c-1.378,0-2.5-1.122-2.5-2.5V36.621C21,24.699,30.719,15,42.665,15     c11.946,0,21.665,9.699,21.665,21.621v368.281c0,15.164,12.336,27.5,27.5,27.5h138.729c4.142,0,7.5-3.358,7.5-7.5     C238.059,420.76,234.701,417.402,230.559,417.402z" fill="#0078b3"/>
			<path d="M307.791,211.348c0-4.142-3.358-7.5-7.5-7.5H154.465c-4.142,0-7.5,3.358-7.5,7.5c0,4.142,3.358,7.5,7.5,7.5h145.826     C304.433,218.848,307.791,215.49,307.791,211.348z" fill="#0078b3"/>
			<path d="M176.548,347.246c0-4.142-3.358-7.5-7.5-7.5h-58.331c-4.142,0-7.5,3.358-7.5,7.5c0,4.142,3.358,7.5,7.5,7.5h58.331     C173.19,354.746,176.548,351.388,176.548,347.246z" fill="#0078b3"/>
			<path d="M441.137,372.546c-4.123-0.46-7.826,2.507-8.284,6.625l-12.865,115.605c-0.141,1.268-1.209,2.224-2.484,2.224h-137.65     c-1.275,0-2.344-0.956-2.485-2.224L264.505,379.17c-0.458-4.117-4.167-7.085-8.284-6.625c-4.117,0.458-7.082,4.167-6.624,8.284     l12.865,115.606c0.988,8.873,8.465,15.564,17.393,15.564h137.65c8.928,0,16.405-6.691,17.392-15.564l12.865-115.605     C448.219,376.713,445.254,373.004,441.137,372.546z" fill="#0078b3"/>
			<path d="M505.654,466.792l-7.777-31.062c-1.203-4.81-5.347-8.245-10.233-8.591v-85.97c6.58-2.719,10.707-8.976,10.586-16.174     c-0.126-7.492-4.819-13.809-11.955-16.095l-129.207-41.384c-5.487-1.757-11.289-1.758-16.777,0L211.083,308.9     c-7.136,2.285-11.829,8.603-11.955,16.095c-0.126,7.491,4.351,13.964,11.406,16.489l128.879,46.126     c5.975,2.138,12.557,2.137,18.533,0l114.698-41.05v80.579c-4.885,0.345-9.029,3.78-10.234,8.59l-7.778,31.063     c-0.857,3.424-0.102,6.983,2.069,9.765c2.173,2.784,5.446,4.381,8.979,4.381h28.926c3.534,0,6.807-1.597,8.98-4.382     C505.758,473.773,506.511,470.214,505.654,466.792z M352.892,373.486c-2.716,0.973-5.708,0.973-8.424,0L215.589,327.36     c-1.231-0.44-1.474-1.392-1.462-2.113c0.012-0.721,0.288-1.665,1.532-2.063L344.867,281.8c1.247-0.399,2.529-0.599,3.812-0.599     c1.283,0,2.565,0.2,3.813,0.599L481.7,323.185c1.244,0.398,1.52,1.342,1.532,2.063c0.012,0.721-0.232,1.673-1.462,2.113     L352.892,373.486z M470.308,465.938l5.966-23.828h7.737l5.966,23.828H470.308z" fill="#0078b3"/>
			<path d="M166.409,153.105c0,4.142,3.358,7.5,7.5,7.5h106.939c4.142,0,7.5-3.358,7.5-7.5c0-4.142-3.358-7.5-7.5-7.5H173.909     C169.767,145.605,166.409,148.963,166.409,153.105z" fill="#0078b3"/>
			<path d="M263.626,77.215c0,9.663-3.77,18.747-10.613,25.581c-3.87,3.864-8.427,6.737-13.544,8.54     c-3.907,1.376-5.958,5.659-4.582,9.566c1.086,3.083,3.981,5.01,7.074,5.01c0.827,0,1.667-0.138,2.492-0.428     c7.246-2.552,13.691-6.614,19.159-12.074c9.682-9.667,15.015-22.522,15.015-36.195c0-13.673-5.332-26.527-15.015-36.195     c-2.932-2.926-7.681-2.922-10.607,0.008c-2.926,2.931-2.923,7.68,0.008,10.607C259.857,58.469,263.626,67.553,263.626,77.215z" fill="#0078b3"/>
			<path d="M227.378,50.302c-4.142,0-7.5,3.358-7.5,7.5v11.914h-11.943c-4.142,0-7.5,3.358-7.5,7.5c0,4.142,3.358,7.5,7.5,7.5     h11.943V96.63c0,4.142,3.358,7.5,7.5,7.5c4.142,0,7.5-3.358,7.5-7.5V84.716h11.944c4.142,0,7.5-3.358,7.5-7.5     c0-4.142-3.358-7.5-7.5-7.5h-11.944V57.802C234.878,53.66,231.52,50.302,227.378,50.302z" fill="#0078b3"/>
			<path d="M191.144,41.021c-9.682,9.667-15.014,22.521-15.014,36.194c0,13.673,5.332,26.528,15.015,36.196     c5.469,5.46,11.914,9.521,19.159,12.073c0.824,0.29,1.665,0.428,2.491,0.428c3.093,0,5.989-1.928,7.074-5.011     c1.376-3.907-0.676-8.189-4.583-9.565c-5.116-1.801-9.672-4.674-13.543-8.539c-6.844-6.833-10.613-15.918-10.613-25.581     c0-9.662,3.769-18.747,10.613-25.58c2.931-2.926,2.935-7.675,0.008-10.606C198.824,38.099,194.075,38.094,191.144,41.021z" fill="#0078b3"/>
		</g>
	</g>
</g>
<g>
</g>
<g>
</g>
<g>
</g>
<g>
</g>
<g>
</g>
<g>
</g>
<g>
</g>
<g>
</g>
<g>
</g>
<g>
</g>
<g>
</g>
<g>
</g>
<g>
</g>
<g>
</g>
<g>
</g>
</svg>
