<?xml version="1.0" encoding="iso-8859-1"?>
<!-- Generator: Adobe Illustrator 19.0.0, SVG Export Plug-In . SVG Version: 6.00 Build 0)  -->
<svg xmlns="http://www.w3.org/2000/svg" xmlns:xlink="http://www.w3.org/1999/xlink" version="1.1" id="Layer_1" x="0px" y="0px" viewBox="0 0 511.999 511.999" style="enable-background:new 0 0 511.999 511.999;" xml:space="preserve" width="512px" height="512px">
<g>
	<g>
		<g>
			<path d="M150.479,172.52c0,24.229,19.712,43.941,43.941,43.941s43.941-19.712,43.941-43.941c0-4.142-3.357-7.5-7.5-7.5     s-7.5,3.358-7.5,7.5c0,15.958-12.983,28.941-28.941,28.941s-28.941-12.983-28.941-28.941s12.983-28.941,28.941-28.941     c1.754,0,3.508,0.157,5.219,0.468c3.503,7.559,11.163,12.815,20.028,12.815c12.164,0,22.061-9.896,22.061-22.061     c0-12.165-9.896-22.061-22.061-22.061c-10.071,0-18.588,6.783-21.221,16.021c-1.337-0.122-2.682-0.183-4.026-0.183     C170.191,128.579,150.479,148.291,150.479,172.52z M219.668,127.74c3.894,0,7.061,3.167,7.061,7.061     c0,3.894-3.167,7.061-7.061,7.061c-3.894,0-7.061-3.167-7.061-7.061C212.607,130.907,215.774,127.74,219.668,127.74z" fill="#0078b3"/>
			<path d="M194.421,272.236c26.676,0,52.501-2.668,76.759-7.93c4.048-0.878,6.618-4.872,5.739-8.919     c-0.878-4.048-4.872-6.619-8.919-5.74c-4.562,0.989-9.183,1.883-13.857,2.681c24.267-18.206,39.995-47.205,39.995-79.808     c0-32.623-15.749-61.639-40.041-79.842c25.796,4.371,49.397,11.602,69.179,21.361c32.608,16.087,50.566,36.856,50.566,58.481     c0,4.142,3.357,7.5,7.5,7.5s7.5-3.358,7.5-7.5C388.842,77.392,301.625,0,194.421,0S0,77.392,0,172.52     c0,87.603,73.837,161.271,171.751,171.359c0.261,0.027,0.521,0.04,0.777,0.04c3.797,0,7.054-2.873,7.452-6.732     c0.424-4.12-2.572-7.805-6.692-8.229c-71.304-7.347-128.751-50.876-149.722-108.233c9.248,8.701,21.104,16.693,35.363,23.728     C95.246,262.369,143.364,272.236,194.421,272.236z M279.138,172.52c0,46.713-38.004,84.717-84.717,84.717     s-84.717-38.004-84.717-84.717s38.004-84.717,84.717-84.717C241.134,87.803,279.138,125.807,279.138,172.52z M194.421,15     c79.773,0,147.556,45.949,170.817,109.279c-9.243-8.688-21.085-16.667-35.326-23.693     c-36.316-17.917-84.435-27.784-135.491-27.784c-51.056,0-99.175,9.868-135.491,27.784c-14.241,7.026-26.083,15.005-35.326,23.693     C46.865,60.949,114.647,15,194.421,15z M15,172.52c0-21.625,17.958-42.394,50.566-58.481     c19.781-9.759,43.383-16.99,69.179-21.361c-24.292,18.204-40.041,47.219-40.041,79.842c0,32.623,15.749,61.639,40.041,79.842     c-25.796-4.371-49.397-11.602-69.179-21.361C32.958,214.914,15,194.145,15,172.52z" fill="#0078b3"/>
			<path d="M489.454,293.88h-75.252l-0.001-75.252c0-12.432-10.114-22.546-22.546-22.546h-75.229     c-12.432,0-22.546,10.114-22.546,22.546v75.252h-75.253c-12.432,0-22.546,10.114-22.546,22.546v75.229     c0,12.432,10.114,22.546,22.546,22.546h75.253v75.252c0,12.432,10.114,22.546,22.546,22.546h75.229     c12.432,0,22.546-10.114,22.546-22.546v-75.252h75.252c12.432,0,22.546-10.114,22.546-22.546v-75.229     C512,303.995,501.886,293.88,489.454,293.88z M497.001,391.656H497c0,4.161-3.385,7.546-7.546,7.546h-82.752     c-4.143,0-7.5,3.358-7.5,7.5v82.752c0,4.161-3.385,7.546-7.546,7.546h-75.229c-4.161,0-7.546-3.385-7.546-7.546v-82.752     c0-4.142-3.357-7.5-7.5-7.5h-82.753c-4.161,0-7.546-3.385-7.546-7.546v-75.229c0-4.161,3.385-7.546,7.546-7.546h82.753     c4.143,0,7.5-3.358,7.5-7.5v-82.752c0-4.161,3.385-7.546,7.546-7.546h75.229c4.161,0,7.546,3.385,7.546,7.546l0.001,82.752     c0,4.142,3.358,7.5,7.5,7.5h82.752c4.161,0,7.546,3.385,7.546,7.546V391.656z" fill="#0078b3"/>
			<path d="M456.936,365.867h-63.339c-14.841,0-26.914,12.074-26.914,26.914v63.338c0,4.142,3.357,7.5,7.5,7.5s7.5-3.358,7.5-7.5     v-63.338c0-6.569,5.345-11.914,11.914-11.914h63.339c4.143,0,7.5-3.358,7.5-7.5C464.436,369.225,461.078,365.867,456.936,365.867     z" fill="#0078b3"/>
		</g>
	</g>
</g>
<g>
</g>
<g>
</g>
<g>
</g>
<g>
</g>
<g>
</g>
<g>
</g>
<g>
</g>
<g>
</g>
<g>
</g>
<g>
</g>
<g>
</g>
<g>
</g>
<g>
</g>
<g>
</g>
<g>
</g>
</svg>
