<?xml version="1.0" encoding="iso-8859-1"?>
<!-- Generator: Adobe Illustrator 19.0.0, SVG Export Plug-In . SVG Version: 6.00 Build 0)  -->
<svg xmlns="http://www.w3.org/2000/svg" xmlns:xlink="http://www.w3.org/1999/xlink" version="1.1" id="Layer_1" x="0px" y="0px" viewBox="0 0 512 512" style="enable-background:new 0 0 512 512;" xml:space="preserve" width="512px" height="512px">
<g>
	<g>
		<path d="M475.379,155.313c-4.142,0-7.5,3.357-7.5,7.5v126.785c0,6.893-5.607,12.5-12.5,12.5H56.621c-6.893,0-12.5-5.607-12.5-12.5    V162.813c0-4.143-3.358-7.5-7.5-7.5c-4.142,0-7.5,3.357-7.5,7.5v126.785c0,15.163,12.336,27.5,27.5,27.5h153.051v101.941h-17.738    c-9.488,0-17.207,7.719-17.207,17.207v31.519H144.37c-9.488,0-17.207,7.719-17.207,17.207v9.528c0,9.649,7.851,17.5,17.5,17.5    h222.676c9.649,0,17.5-7.851,17.5-17.5v-9.528c0-9.488-7.719-17.207-17.207-17.207h-30.357v-31.519    c0-9.488-7.719-17.207-17.207-17.207H302.33v-53.216h8.297v2.245c0,4.143,3.358,7.5,7.5,7.5c4.142,0,7.5-3.357,7.5-7.5v-19.49    c0-4.143-3.358-7.5-7.5-7.5c-4.142,0-7.5,3.357-7.5,7.5v2.245h-8.297v-33.726h153.051c15.164,0,27.5-12.337,27.5-27.5V162.813    C482.879,158.67,479.521,155.313,475.379,155.313z M224.672,317.098H248.5v80.206c0,4.142,3.358,7.5,7.5,7.5    c4.142,0,7.5-3.357,7.5-7.5v-80.206h23.828v101.941h-62.656V317.098z M367.631,482.765L367.631,482.765    c1.217,0,2.207,0.99,2.207,2.207v9.528c0,1.379-1.122,2.5-2.5,2.5H144.662c-1.378,0-2.5-1.121-2.5-2.5v-9.528    c0-1.217,0.99-2.207,2.207-2.207h122.412h12.516H367.631z M320.066,434.039c1.217,0,2.207,0.99,2.207,2.207v31.519h-42.977H266.78    h-77.055v-31.519c0-1.217,0.99-2.207,2.207-2.207H320.066z" fill="#0078b3"/>
	</g>
</g>
<g>
	<g>
		<path d="M390.281,243.628c-12.165,0-22.061,9.895-22.061,22.06v0.114c0,12.164,9.896,22.061,22.061,22.061    c12.165,0,22.061-9.896,22.061-22.061v-0.114C412.342,253.524,402.446,243.628,390.281,243.628z M397.341,265.802    c0,3.894-3.167,7.061-7.061,7.061c-3.894,0-7.061-3.167-7.061-7.061v-0.114c0-3.893,3.167-7.06,7.061-7.06    c3.894,0,7.061,3.167,7.061,7.06V265.802z" fill="#0078b3"/>
	</g>
</g>
<g>
	<g>
		<path d="M446.258,155.313c-4.142,0-7.5,3.357-7.5,7.5v49.08c0,1.379-1.122,2.5-2.5,2.5H75.742c-1.378,0-2.5-1.121-2.5-2.5v-49.08    c0-4.143-3.358-7.5-7.5-7.5s-7.5,3.357-7.5,7.5v49.08c0,9.649,7.851,17.5,17.5,17.5h360.516c9.649,0,17.5-7.851,17.5-17.5v-49.08    C453.758,158.67,450.4,155.313,446.258,155.313z" fill="#0078b3"/>
	</g>
</g>
<g>
	<g>
		<path d="M99.66,243.628h-19.3c-12.196,0-22.118,9.922-22.118,22.117s9.922,22.117,22.118,22.117h19.3    c12.196,0,22.118-9.922,22.118-22.117S111.856,243.628,99.66,243.628z M99.66,272.862h-19.3c-3.925,0-7.118-3.192-7.118-7.117    c0-3.925,3.193-7.117,7.118-7.117h19.3c3.925,0,7.118,3.192,7.118,7.117C106.778,269.67,103.585,272.862,99.66,272.862z" fill="#0078b3"/>
	</g>
</g>
<g>
	<g>
		<path d="M504.5,127.661h-21.621V27.5c0-15.164-12.336-27.5-27.5-27.5H56.621c-15.164,0-27.5,12.336-27.5,27.5v100.161H7.5    c-4.142,0-7.5,3.357-7.5,7.5s3.358,7.5,7.5,7.5h106.466c3.042,0,5.783-1.838,6.938-4.652l8.244-20.087l13.814,47.591    c0.816,2.811,3.192,4.891,6.087,5.326c2.896,0.434,5.777-0.853,7.384-3.3l16.342-24.878h28.865c0.067,0,0.135-0.001,0.202-0.003    c11.41,18.081,26.172,34.155,35.92,43.913c4.942,4.947,11.419,7.671,18.237,7.671s13.295-2.724,18.238-7.671    c9.748-9.759,24.51-25.832,35.92-43.913c0.067,0.002,0.134,0.003,0.202,0.003h28.865l16.342,24.878    c1.607,2.447,4.493,3.732,7.384,3.3c2.895-0.436,5.271-2.516,6.087-5.326l13.814-47.591l8.244,20.087    c1.155,2.814,3.896,4.652,6.938,4.652H504.5c4.142,0,7.5-3.357,7.5-7.5S508.642,127.661,504.5,127.661z M263.626,175.97    c-2.108,2.11-4.817,3.272-7.626,3.272s-5.518-1.162-7.625-3.272c-31.75-31.781-59.687-73.637-43.235-96.101    c3.96-4.129,9.119-6.398,14.567-6.398c5.567,0,10.833,2.369,14.826,6.673l3.741,4.029c4.564,4.919,11.026,7.74,17.727,7.74    c6.701,0,13.163-2.821,17.727-7.739l3.742-4.031c3.993-4.303,9.258-6.672,14.825-6.672c5.448,0,10.606,2.27,14.567,6.398    C323.312,102.333,295.375,144.188,263.626,175.97z M438.758,127.661h-35.695l-14.488-35.303c-1.211-2.95-4.162-4.813-7.339-4.642    c-3.185,0.17-5.913,2.336-6.802,5.398l-15.265,52.587l-9.629-14.658c-1.387-2.111-3.743-3.383-6.269-3.383h-24.77    c9.435-19.781,12.691-40.491,0.097-57.144c-0.152-0.201-0.313-0.394-0.484-0.578c-6.864-7.396-16.033-11.469-25.82-11.469    c-9.787,0-18.957,4.073-25.819,11.468l-3.742,4.031c-1.762,1.897-4.153,2.943-6.733,2.943s-4.971-1.046-6.733-2.944l-3.74-4.029    c-6.864-7.396-16.033-11.469-25.82-11.469c-9.786,0-18.957,4.073-25.82,11.469c-0.171,0.184-0.333,0.377-0.485,0.578    c-12.593,16.652-9.337,37.362,0.098,57.144h-24.77c-2.526,0-4.882,1.271-6.269,3.383l-9.629,14.658l-15.265-52.587    c-0.889-3.063-3.617-5.229-6.802-5.398c-3.175-0.158-6.128,1.691-7.339,4.642l-14.488,35.303H73.242V46.735    c0-1.379,1.122-2.5,2.5-2.5h360.516c1.378,0,2.5,1.121,2.5,2.5V127.661z M467.879,127.661h-14.121V46.735    c0-9.649-7.851-17.5-17.5-17.5H75.742c-9.649,0-17.5,7.851-17.5,17.5v80.926H44.121V27.5c0-6.893,5.607-12.5,12.5-12.5h398.758    c6.893,0,12.5,5.607,12.5,12.5V127.661z" fill="#0078b3"/>
	</g>
</g>
<g>
	<g>
		<path d="M177.316,243.628h-19.3c-12.196,0-22.118,9.922-22.118,22.117s9.922,22.117,22.118,22.117h19.3    c12.196,0,22.118-9.922,22.118-22.117S189.512,243.628,177.316,243.628z M177.316,272.862h-19.3c-3.925,0-7.118-3.192-7.118-7.117    c0-3.925,3.193-7.117,7.118-7.117h19.3c3.925,0,7.118,3.192,7.118,7.117S181.241,272.862,177.316,272.862z" fill="#0078b3"/>
	</g>
</g>
<g>
	<g>
		<path d="M254.972,243.628h-19.3c-12.196,0-22.118,9.922-22.118,22.117s9.922,22.117,22.118,22.117h19.3    c12.196,0,22.118-9.922,22.118-22.117S267.168,243.628,254.972,243.628z M254.972,272.862h-19.3c-3.925,0-7.118-3.192-7.118-7.117    c0-3.925,3.193-7.117,7.118-7.117h19.3c3.925,0,7.118,3.192,7.118,7.117S258.897,272.862,254.972,272.862z" fill="#0078b3"/>
	</g>
</g>
<g>
	<g>
		<path d="M444.838,270.426h-10.229c-4.142,0-7.5,3.357-7.5,7.5s3.358,7.5,7.5,7.5h10.229c4.142,0,7.5-3.357,7.5-7.5    S448.98,270.426,444.838,270.426z" fill="#0078b3"/>
	</g>
</g>
<g>
	<g>
		<path d="M444.316,246.064h-10.229c-4.142,0-7.5,3.357-7.5,7.5s3.358,7.5,7.5,7.5h10.229c4.142,0,7.5-3.357,7.5-7.5    S448.458,246.064,444.316,246.064z" fill="#0078b3"/>
	</g>
</g>
<g>
</g>
<g>
</g>
<g>
</g>
<g>
</g>
<g>
</g>
<g>
</g>
<g>
</g>
<g>
</g>
<g>
</g>
<g>
</g>
<g>
</g>
<g>
</g>
<g>
</g>
<g>
</g>
<g>
</g>
</svg>
