<?xml version="1.0" encoding="iso-8859-1"?>
<!-- Generator: Adobe Illustrator 19.0.0, SVG Export Plug-In . SVG Version: 6.00 Build 0)  -->
<svg xmlns="http://www.w3.org/2000/svg" xmlns:xlink="http://www.w3.org/1999/xlink" version="1.1" id="Layer_1" x="0px" y="0px" viewBox="0 0 512.001 512.001" style="enable-background:new 0 0 512.001 512.001;" xml:space="preserve" width="512px" height="512px">
<g>
	<g>
		<path d="M201.641,131.044h-38.828c-0.064,0-0.127,0.001-0.191,0.002c0.853-4.622,1.974-9.196,3.362-13.706l13.136-42.691    c5.44-17.681,2.257-36.355-8.733-51.235C159.396,8.534,142.483,0,123.984,0C55.619,0,0,55.619,0,123.984v58.242    C0,250.591,55.619,306.21,123.984,306.21c18.499,0,35.412-8.534,46.401-23.414c10.99-14.88,14.173-33.555,8.733-51.236    l-13.136-42.691c-1.388-4.51-2.509-9.084-3.362-13.706c0.063,0.001,0.127,0.002,0.191,0.002h19.414c4.142,0,7.5-3.358,7.5-7.5    c0-4.142-3.356-7.499-7.498-7.499h-19.414c-0.688,0-1.354,0.093-1.987,0.266c-0.146-2.436-0.22-4.879-0.22-7.327    c0-2.447,0.074-4.891,0.22-7.327c0.633,0.173,1.299,0.266,1.987,0.266h38.828c4.142,0,7.5-3.358,7.5-7.5    C209.141,134.402,205.783,131.044,201.641,131.044z M151.646,112.93c-0.298,0.969-0.585,1.942-0.862,2.917    c-8.261-0.191-16.309-2.014-23.95-5.429c-13.187-5.894-23.61-15.804-30.144-28.66c-1.876-3.692-6.393-5.164-10.084-3.288    c-3.692,1.877-5.164,6.392-3.288,10.084c7.992,15.723,21.272,28.351,37.395,35.557c8.555,3.824,17.524,6.038,26.737,6.605    c-0.818,4.926-1.366,9.895-1.64,14.889H46.328c-4.142,0-7.5,3.358-7.5,7.5c0,4.142,3.358,7.5,7.5,7.5h99.483    c0.263,4.786,0.777,9.55,1.54,14.274c-9.177,0.578-18.113,2.789-26.637,6.599c-16.123,7.207-29.403,19.834-37.395,35.557    c-1.876,3.693-0.405,8.208,3.288,10.084c3.692,1.874,8.208,0.405,10.084-3.288c6.534-12.855,16.958-22.766,30.144-28.66    c7.588-3.392,15.575-5.213,23.776-5.425c0.329,1.181,0.674,2.36,1.035,3.533l13.136,42.693c4.026,13.083,1.67,26.902-6.462,37.913    c-8.132,11.011-20.647,17.326-34.336,17.326C63.89,291.211,15,242.321,15,182.227v-58.242C15,63.89,63.89,15,123.984,15    c13.688,0,26.204,6.315,34.336,17.326s10.488,24.83,6.462,37.913L151.646,112.93z" fill="#0078b3"/>
	</g>
</g>
<g>
	<g>
		<path d="M304.535,382.5c-4.142,0-7.5,3.358-7.5,7.5v99.939c0,3.893-3.167,7.061-7.061,7.061c-3.894,0-7.061-3.167-7.061-7.061    V308.418c0-4.142-3.358-7.5-7.5-7.5c-4.142,0-7.5,3.358-7.5,7.5v181.521c0,12.164,9.896,22.061,22.061,22.061    c12.165,0,22.061-9.896,22.061-22.061V390C312.035,385.858,308.677,382.5,304.535,382.5z" fill="#0078b3"/>
	</g>
</g>
<g>
	<g>
		<path d="M275.414,184.433c-4.142,0-7.5,3.358-7.5,7.5v87.364c0,4.142,3.358,7.5,7.5,7.5c4.142,0,7.5-3.358,7.5-7.5v-87.364    C282.914,187.791,279.556,184.433,275.414,184.433z" fill="#0078b3"/>
	</g>
</g>
<g>
	<g>
		<path d="M304.535,184.433c-4.142,0-7.5,3.358-7.5,7.5V360c0,4.142,3.358,7.5,7.5,7.5c4.142,0,7.5-3.358,7.5-7.5V191.933    C312.035,187.791,308.677,184.433,304.535,184.433z" fill="#0078b3"/>
	</g>
</g>
<g>
	<g>
		<path d="M388.016,0c-18.499,0-35.412,8.534-46.401,23.415c-10.99,14.88-14.173,33.555-8.733,51.235l13.136,42.691    c1.388,4.509,2.509,9.083,3.361,13.704h-98.231c-28.222,0-51.182,22.96-51.182,51.182V489.94c0,12.164,9.896,22.061,22.061,22.061    c12.165,0,22.061-9.896,22.061-22.061V182.227c0-3.893,3.167-7.061,7.061-7.061h98.231c-0.853,4.621-1.974,9.195-3.361,13.704    l-13.136,42.691c-5.44,17.681-2.257,36.355,8.733,51.236c10.99,14.88,27.903,23.414,46.401,23.414    c68.365,0,123.984-55.619,123.984-123.984v-58.242C512,55.619,456.381,0,388.016,0z M251.146,160.167L251.146,160.167    c-12.164-0.001-22.061,9.895-22.061,22.06V489.94c0,3.893-3.167,7.061-7.061,7.061s-7.061-3.167-7.061-7.061V182.227    c0-19.951,16.231-36.182,36.182-36.182H351.19c0.136,2.348,0.205,4.703,0.205,7.061c0,2.358-0.068,4.712-0.205,7.061H251.146z     M497,182.227c0,60.094-48.89,108.984-108.984,108.984c-13.688,0-26.204-6.315-34.336-17.326    c-8.132-11.011-10.488-24.83-6.462-37.913l13.136-42.691c0.361-1.173,0.707-2.352,1.035-3.533    c8.2,0.212,16.189,2.033,23.776,5.425c13.187,5.894,23.61,15.804,30.144,28.66c1.876,3.692,6.392,5.164,10.084,3.288    c3.692-1.877,5.164-6.392,3.288-10.084c-7.992-15.723-21.272-28.351-37.395-35.557c-8.524-3.81-17.459-6.021-26.637-6.599    c0.784-4.852,1.305-9.747,1.561-14.664c0.751,0.253,1.555,0.39,2.392,0.39h97.07c4.142,0,7.5-3.358,7.5-7.5    c0-4.142-3.358-7.5-7.5-7.5h-97.07c-0.836,0-1.641,0.137-2.392,0.39c-0.267-5.125-0.821-10.225-1.661-15.278    c9.212-0.568,18.183-2.781,26.737-6.605c16.123-7.207,29.403-19.834,37.395-35.557c1.876-3.693,0.405-8.208-3.288-10.084    c-3.693-1.876-8.208-0.405-10.084,3.288c-6.534,12.855-16.958,22.766-30.144,28.66c-7.642,3.416-15.688,5.238-23.95,5.429    c-0.276-0.975-0.563-1.947-0.862-2.917l-13.136-42.691c-4.026-13.083-1.67-26.902,6.462-37.913    C361.812,21.315,374.327,15,388.016,15C448.11,15,497,63.89,497,123.984V182.227z" fill="#0078b3"/>
	</g>
</g>
<g>
</g>
<g>
</g>
<g>
</g>
<g>
</g>
<g>
</g>
<g>
</g>
<g>
</g>
<g>
</g>
<g>
</g>
<g>
</g>
<g>
</g>
<g>
</g>
<g>
</g>
<g>
</g>
<g>
</g>
</svg>
